<svg width="75" height="84" viewBox="0 0 75 84" fill="none" xmlns="http://www.w3.org/2000/svg">
<g clip-path="url(#clip0_2001_491)">
<path d="M19.1514 33.8206C18.902 33.8206 18.6776 33.7333 18.4781 33.5588C18.2786 33.3842 18.1788 33.1722 18.1788 32.9229V23.7212C18.1788 23.422 18.2661 23.1851 18.4407 23.0105C18.6152 22.836 18.8521 22.7487 19.1514 22.7487H28.353C28.6024 22.7487 28.8143 22.8485 28.9889 23.048C29.1634 23.2474 29.2507 23.4719 29.2507 23.7212C29.2507 24.0205 29.126 24.2699 28.8767 24.4693C28.6273 24.6688 28.353 24.7187 28.0537 24.619H20.0491V32.9229C20.0491 33.1722 19.9618 33.3842 19.7872 33.5588C19.6127 33.7333 19.4007 33.8206 19.1514 33.8206ZM28.353 74.6669H19.1514C18.902 74.6669 18.6776 74.5796 18.4781 74.405C18.2786 74.2305 18.1788 74.0185 18.1788 73.7691V41.6008C18.1788 41.3515 18.2661 41.127 18.4407 40.9275C18.6152 40.7281 18.8397 40.6283 19.114 40.6283C19.3883 40.6283 19.6127 40.7281 19.7872 40.9275C19.9618 41.127 20.0491 41.3515 20.0491 41.6008V72.8714H27.3805V41.6008C27.3805 41.3515 27.4677 41.127 27.6423 40.9275C27.8169 40.7281 28.0413 40.6283 28.3156 40.6283C28.5899 40.6283 28.8143 40.7281 28.9889 40.9275C29.1634 41.127 29.2507 41.3515 29.2507 41.6008V73.7691C29.2507 74.0185 29.1634 74.2305 28.9889 74.405C28.8143 74.5796 28.6024 74.6669 28.353 74.6669ZM37.7042 79.3799H21.7697C21.5203 79.3799 21.3084 79.2926 21.1338 79.118C20.9593 78.9435 20.872 78.7315 20.872 78.4822C20.872 78.2328 20.9593 78.0208 21.1338 77.8463C21.3084 77.6717 21.5203 77.5844 21.7697 77.5844H36.8065V74.6669H10.9971V77.5844H16.9071C17.1564 77.5844 17.3684 77.6717 17.5429 77.8463C17.7175 78.0208 17.8048 78.2328 17.8048 78.4822C17.8048 78.7315 17.7175 78.9435 17.5429 79.118C17.3684 79.2926 17.1564 79.3799 16.9071 79.3799H10.0993C9.84998 79.3799 9.63802 79.2926 9.46346 79.118C9.28891 78.9435 9.20163 78.7315 9.20163 78.4822V73.7691C9.20163 73.5198 9.28891 73.3078 9.46346 73.1332C9.63802 72.9587 9.84998 72.8714 10.0993 72.8714H37.7042C37.9536 72.8714 38.1656 72.9587 38.3401 73.1332C38.5147 73.3078 38.602 73.5198 38.602 73.7691V78.4822C38.602 78.7315 38.5147 78.9435 38.3401 79.118C38.1656 79.2926 37.9536 79.3799 37.7042 79.3799ZM28.353 74.6669C28.1036 74.6669 27.8792 74.592 27.6797 74.4424L18.4781 65.3156C18.2786 65.1161 18.1788 64.9041 18.1788 64.6797C18.1788 64.4553 18.2786 64.2433 18.4781 64.0438L27.0064 55.4407L18.4781 46.9123C18.2287 46.7128 18.129 46.451 18.1788 46.1268C18.2287 45.8027 18.4033 45.5658 18.7025 45.4161L27.9041 40.8527C28.1036 40.8029 28.3031 40.8153 28.5026 40.8901C28.7021 40.965 28.8642 41.1021 28.9889 41.3016C29.1136 41.5011 29.151 41.7006 29.1011 41.9001C29.0512 42.0996 28.9265 42.2741 28.727 42.4237L20.6476 46.4635L28.9515 54.8422C29.151 55.0417 29.2507 55.2537 29.2507 55.4781C29.2507 55.7025 29.151 55.9145 28.9515 56.114L20.4231 64.6423L28.9515 73.1707C29.2008 73.4699 29.2507 73.7816 29.1011 74.1058C28.9515 74.43 28.7021 74.617 28.353 74.6669ZM28.353 47.436H19.1514C18.902 47.436 18.6776 47.3487 18.4781 47.1742C18.2786 46.9996 18.1788 46.7877 18.1788 46.5383C18.1788 46.2889 18.2786 46.077 18.4781 45.9024C18.6776 45.7279 18.902 45.6406 19.1514 45.6406H28.353C28.6024 45.6406 28.8143 45.7279 28.9889 45.9024C29.1634 46.077 29.2507 46.2889 29.2507 46.5383C29.2507 46.7877 29.1634 46.9996 28.9889 47.1742C28.8143 47.3487 28.6024 47.436 28.353 47.436ZM28.353 65.54H19.1514C18.902 65.54 18.6776 65.4528 18.4781 65.2782C18.2786 65.1036 18.1788 64.8917 18.1788 64.6423C18.1788 64.3929 18.2786 64.181 18.4781 64.0064C18.6776 63.8319 18.902 63.7446 19.1514 63.7446H28.353C28.6024 63.7446 28.8143 63.8319 28.9889 64.0064C29.1634 64.181 29.2507 64.3929 29.2507 64.6423C29.2507 64.8917 29.1634 65.1036 28.9889 65.2782C28.8143 65.4528 28.6024 65.54 28.353 65.54ZM28.353 56.5628H19.1514C18.8521 56.5628 18.6152 56.4756 18.4407 56.301C18.2661 56.1264 18.1788 55.902 18.1788 55.6277C18.1788 55.3534 18.2786 55.129 18.4781 54.9544C18.6776 54.7799 18.902 54.6926 19.1514 54.6926H28.353C28.6024 54.6926 28.8143 54.7799 28.9889 54.9544C29.1634 55.129 29.2507 55.3409 29.2507 55.5903C29.2507 55.8397 29.1634 56.0641 28.9889 56.2636C28.8143 56.4631 28.6024 56.5628 28.353 56.5628ZM28.353 24.7686H19.1514C18.902 24.7686 18.6776 24.6813 18.4781 24.5067C18.2786 24.3322 18.1788 24.1202 18.1788 23.8709V12.3501L20.5728 5.16837C20.6226 4.96887 20.7348 4.81925 20.9094 4.71951C21.084 4.61976 21.271 4.56989 21.4705 4.56989H26.0339C26.2334 4.56989 26.4204 4.61976 26.595 4.71951C26.7695 4.81925 26.8817 4.96887 26.9316 5.16837L29.2507 12.3501V23.8709C29.2507 24.1202 29.1634 24.3322 28.9889 24.5067C28.8143 24.6813 28.6024 24.7686 28.353 24.7686ZM20.0491 22.9731H27.3805V12.4997L25.3606 6.36533H22.0689L20.0491 12.4997V22.9731ZM27.8293 11.4524H73.9123C74.1616 11.4524 74.3736 11.5397 74.5482 11.7142C74.7227 11.8888 74.81 12.1008 74.81 12.3501V19.3075C74.81 19.5568 74.7227 19.7688 74.5482 19.9433C74.3736 20.1179 74.1616 20.2052 73.9123 20.2052H27.8293C27.58 20.2052 27.368 20.1179 27.1934 19.9433C27.0189 19.7688 26.9316 19.5568 26.9316 19.3075V12.3501C26.9316 12.1008 27.0189 11.8888 27.1934 11.7142C27.368 11.5397 27.58 11.4524 27.8293 11.4524ZM73.0146 13.3227H28.727V18.3349H73.0146V13.3227ZM0.97253 11.4524H19.301C19.5503 11.4524 19.7623 11.5397 19.9369 11.7142C20.1114 11.8888 20.1987 12.1008 20.1987 12.3501V19.3075C20.1987 19.5568 20.1114 19.7688 19.9369 19.9433C19.7623 20.1179 19.5503 20.2052 19.301 20.2052H0.97253C0.723163 20.2052 0.511202 20.1179 0.336645 19.9433C0.162088 19.7688 0.07481 19.5568 0.07481 19.3075V12.3501C0.07481 12.1008 0.162088 11.8888 0.336645 11.7142C0.511202 11.5397 0.723163 11.4524 0.97253 11.4524ZM18.4033 13.3227H1.87025V18.3349H18.4033V13.3227ZM10.0993 29.2572H0.89772C0.648353 29.2572 0.436392 29.1699 0.261835 28.9953C0.0872783 28.8208 0 28.6088 0 28.3595V19.1578C0 18.9085 0.0872783 18.6965 0.261835 18.5219C0.436392 18.3474 0.648353 18.2601 0.89772 18.2601H10.0993C10.3487 18.2601 10.5731 18.3474 10.7726 18.5219C10.9721 18.6965 11.0719 18.9085 11.0719 19.1578V21.3273C11.0719 21.5767 10.9846 21.8011 10.81 22.0006C10.6355 22.2001 10.4111 22.2874 10.1368 22.2624C9.86245 22.2375 9.63802 22.1378 9.46346 21.9632C9.28891 21.7887 9.20163 21.5767 9.20163 21.3273V20.0556H1.79544V27.4617H9.20163V26.19C9.20163 25.9406 9.28891 25.7162 9.46346 25.5167C9.63802 25.3172 9.86245 25.2174 10.1368 25.2174C10.4111 25.2174 10.6355 25.3172 10.81 25.5167C10.9846 25.7162 11.0719 25.9406 11.0719 26.19V28.3595C11.0719 28.6088 10.9721 28.8208 10.7726 28.9953C10.5731 29.1699 10.3487 29.2572 10.0993 29.2572ZM28.353 20.2052C28.1036 20.2052 27.9041 20.1304 27.7545 19.9807L18.5529 13.0982C18.3534 12.9486 18.2412 12.7491 18.2162 12.4997C18.1913 12.2504 18.2536 12.0259 18.4033 11.8265C18.5529 11.627 18.7524 11.5147 19.0017 11.4898C19.2511 11.4649 19.4755 11.5272 19.675 11.6768L28.8767 18.5594C29.0263 18.6591 29.1385 18.8087 29.2133 19.0082C29.2881 19.2077 29.3006 19.3947 29.2507 19.5693C29.2008 19.7438 29.0886 19.8935 28.9141 20.0182C28.7395 20.1428 28.5525 20.2052 28.353 20.2052ZM28.4278 24.8434C28.2782 24.8434 28.1535 24.8185 28.0537 24.7686L18.7025 20.1304C18.3534 19.9807 18.1664 19.7314 18.1414 19.3823C18.1165 19.0331 18.2536 18.7588 18.5529 18.5594L27.7545 11.6768C27.954 11.5272 28.1784 11.4649 28.4278 11.4898C28.6772 11.5147 28.8767 11.627 29.0263 11.8265C29.1759 12.0259 29.2382 12.2504 29.2133 12.4997C29.1884 12.7491 29.0762 12.9486 28.8767 13.0982L20.872 19.1578L28.8767 23.1228C29.0762 23.2225 29.2258 23.3721 29.3255 23.5716C29.4253 23.7711 29.4502 23.9706 29.4003 24.1701C29.3505 24.3696 29.2258 24.5442 29.0263 24.6938C28.8268 24.8434 28.6273 24.8933 28.4278 24.8434ZM69.2741 20.2052C69.0746 20.2052 68.9 20.1553 68.7504 20.0556L60.0724 13.5471L51.3945 20.0556C51.0454 20.3049 50.6962 20.3049 50.3471 20.0556L41.6692 13.5471L33.066 19.9807C32.8665 20.1304 32.6421 20.1927 32.3927 20.1678C32.1434 20.1428 31.9439 20.0306 31.7942 19.8311C31.6446 19.6316 31.5823 19.4072 31.6072 19.1578C31.6322 18.9085 31.7444 18.709 31.9439 18.5594L41.1455 11.6768C41.2951 11.5272 41.4821 11.4524 41.7066 11.4524C41.931 11.4524 42.118 11.5272 42.2677 11.6768L50.8708 18.1853L59.5488 11.6768C59.6984 11.5272 59.8854 11.4524 60.1098 11.4524C60.3343 11.4524 60.5213 11.5272 60.6709 11.6768L69.8725 18.5594C70.072 18.6591 70.1967 18.8087 70.2466 19.0082C70.2965 19.2077 70.284 19.4072 70.2092 19.6067C70.1344 19.8062 70.0097 19.9683 69.8351 20.093C69.6606 20.2176 69.4735 20.255 69.2741 20.2052ZM14.7376 20.2052C14.5381 20.2052 14.3386 20.1553 14.1391 20.0556L5.01227 13.0982C4.81278 12.9486 4.68809 12.7491 4.63822 12.4997C4.58835 12.2504 4.63822 12.0259 4.78784 11.8265C4.93746 11.627 5.13695 11.5147 5.38632 11.4898C5.63569 11.4649 5.86012 11.5272 6.05961 11.6768L15.2612 18.5594C15.4109 18.6591 15.5231 18.8087 15.5979 19.0082C15.6727 19.2077 15.6852 19.3947 15.6353 19.5693C15.5854 19.7438 15.4732 19.8935 15.2986 20.0182C15.1241 20.1428 14.9371 20.2052 14.7376 20.2052ZM55.509 18.2601H69.2741C69.5234 18.2601 69.7479 18.3474 69.9473 18.5219C70.1468 18.6965 70.2466 18.9085 70.2466 19.1578V23.7212C70.2466 24.0205 70.1593 24.2574 69.9848 24.4319C69.8102 24.6065 69.5733 24.6938 69.2741 24.6938H55.509C55.2597 24.6938 55.0477 24.594 54.8731 24.3945C54.6986 24.195 54.6113 23.9706 54.6113 23.7212V19.1578C54.6113 18.9085 54.6986 18.6965 54.8731 18.5219C55.0477 18.3474 55.2597 18.2601 55.509 18.2601ZM68.3763 20.0556H56.4067V22.8235H68.3763V20.0556ZM64.7106 52.0742H60.0724C59.8729 52.0742 59.6859 51.9994 59.5114 51.8498C59.3368 51.7002 59.2246 51.5256 59.1747 51.3261L56.9304 42.1245C56.8307 41.8253 56.8805 41.5634 57.08 41.339C57.2795 41.1146 57.5289 41.0024 57.8281 41.0024H66.9549C67.2542 41.0024 67.5036 41.1146 67.703 41.339C67.9025 41.5634 67.9524 41.8253 67.8527 42.1245L65.6084 51.3261C65.5585 51.5256 65.4463 51.7002 65.2717 51.8498C65.0972 51.9994 64.9101 52.0742 64.7106 52.0742ZM60.8205 50.204H63.9625L65.8328 42.8726H58.9503L60.8205 50.204ZM62.3915 65.6897C60.8953 65.6897 59.5986 65.1535 58.5014 64.0812C57.4042 63.009 56.8556 61.7247 56.8556 60.2285C56.8556 59.9792 56.9429 59.7547 57.1174 59.5552C57.292 59.3557 57.5164 59.256 57.7907 59.256C58.065 59.256 58.2895 59.3557 58.464 59.5552C58.6386 59.7547 58.7258 59.9792 58.7258 60.2285C58.7258 61.226 59.0874 62.0738 59.8106 62.7721C60.5338 63.4703 61.4065 63.8194 62.4289 63.8194C63.4513 63.8194 64.3117 63.4578 65.0099 62.7347C65.7081 62.0115 66.0572 61.1387 66.0572 60.1163C66.0572 59.0939 65.6956 58.2336 64.9725 57.5354C64.2493 56.8371 63.389 56.488 62.3915 56.488C62.1422 56.488 61.9302 56.4007 61.7557 56.2262C61.5811 56.0516 61.4938 55.8397 61.4938 55.5903V51.0269C61.4938 50.7775 61.5811 50.5656 61.7557 50.391C61.9302 50.2165 62.1422 50.1292 62.3915 50.1292C62.6409 50.1292 62.8529 50.2165 63.0274 50.391C63.202 50.5656 63.2893 50.7775 63.2893 51.0269V54.7674C64.6358 55.0666 65.7206 55.7773 66.5435 56.8995C67.3664 58.0216 67.7155 59.2685 67.5908 60.64C67.4661 62.0115 66.9175 63.171 65.945 64.1186C64.9725 65.0662 63.788 65.5899 62.3915 65.6897ZM62.3915 43.0222C62.1422 43.0222 61.9302 42.9349 61.7557 42.7604C61.5811 42.5858 61.4938 42.3739 61.4938 42.1245V23.6464C61.4938 23.3971 61.5811 23.1851 61.7557 23.0105C61.9302 22.836 62.1422 22.7487 62.3915 22.7487C62.6409 22.7487 62.8529 22.836 63.0274 23.0105C63.202 23.1851 63.2893 23.3971 63.2893 23.6464V42.1245C63.2893 42.3739 63.202 42.5858 63.0274 42.7604C62.8529 42.9349 62.6409 43.0222 62.3915 43.0222ZM60.2969 13.3227C60.247 13.3227 60.1971 13.2977 60.1472 13.2478L25.6598 6.36533C25.4105 6.31545 25.211 6.19077 25.0613 5.99127C24.9117 5.79178 24.8619 5.56735 24.9117 5.31799C24.9616 5.06862 25.0863 4.86913 25.2858 4.71951C25.4853 4.56989 25.7097 4.52001 25.9591 4.56989L60.5213 11.4524C60.7707 11.4524 60.9826 11.5522 61.1572 11.7516C61.3317 11.9511 61.4065 12.188 61.3816 12.4623C61.3567 12.7366 61.2445 12.9486 61.045 13.0982C60.8455 13.2478 60.621 13.3227 60.3717 13.3227H60.2969ZM0.97253 13.3227C0.52367 13.3227 0.249367 13.0982 0.14962 12.6494C0.0498733 12.4 0.0623417 12.1756 0.187025 11.9761C0.311708 11.7766 0.473797 11.627 0.67329 11.5272L21.3209 4.64469C21.5702 4.54494 21.8071 4.54494 22.0315 4.64469C22.256 4.74444 22.4181 4.919 22.5178 5.16837C22.6176 5.41773 22.6051 5.6671 22.4804 5.91647C22.3557 6.16583 22.1687 6.31545 21.9193 6.36533L1.27177 13.2478C1.17202 13.2977 1.07228 13.3227 0.97253 13.3227ZM37.4798 43.0222H23.64C23.3906 43.0222 23.1786 42.9225 23.0041 42.723C22.8295 42.5235 22.7422 42.2991 22.7422 42.0497V23.7212C22.7422 23.4719 22.8295 23.2599 23.0041 23.0854C23.1786 22.9108 23.3906 22.8235 23.64 22.8235H28.353C30.6472 22.8235 32.692 23.5093 34.4874 24.8808C36.2828 26.2523 37.4798 28.0353 38.0783 30.2297C38.1282 30.4791 38.0908 30.716 37.9661 30.9404C37.8414 31.1648 37.6544 31.302 37.405 31.3519C37.1556 31.4017 36.9187 31.3643 36.6943 31.2397C36.4699 31.115 36.3327 30.9279 36.2828 30.6786C35.7841 28.8831 34.7991 27.4243 33.3279 26.3022C31.8566 25.18 30.1983 24.619 28.353 24.619H24.5377V41.152H36.5821V35.3168C36.5821 35.0674 36.6694 34.8555 36.8439 34.6809C37.0185 34.5064 37.2304 34.4191 37.4798 34.4191C37.7292 34.4191 37.9411 34.5064 38.1157 34.6809C38.2902 34.8555 38.3775 35.0674 38.3775 35.3168V42.0497C38.3775 42.2991 38.2902 42.5235 38.1157 42.723C37.9411 42.9225 37.7292 43.0222 37.4798 43.0222ZM14.5879 31.8755H23.7148C23.9641 31.8755 24.1761 31.9628 24.3507 32.1374C24.5252 32.3119 24.6125 32.5239 24.6125 32.7733V42.0497C24.6125 42.2991 24.5252 42.511 24.3507 42.6856C24.1761 42.8601 23.9641 42.9474 23.7148 42.9474H14.5879C14.3386 42.9474 14.1266 42.8601 13.9521 42.6856C13.7775 42.511 13.6902 42.2991 13.6902 42.0497V32.7733C13.6902 32.5239 13.7775 32.3119 13.9521 32.1374C14.1266 31.9628 14.3386 31.8755 14.5879 31.8755ZM22.817 33.7458H15.4857V41.0772H22.817V33.7458ZM37.405 38.384H28.2034C27.954 38.384 27.742 38.2967 27.5675 38.1222C27.3929 37.9476 27.3056 37.7356 27.3056 37.4863V28.2847C27.3056 28.0353 27.3929 27.8233 27.5675 27.6488C27.742 27.4742 27.954 27.3869 28.2034 27.3869H36.2828C36.5322 27.3869 36.7442 27.4742 36.9187 27.6488C37.0933 27.8233 37.1806 28.0353 37.1806 28.2847C37.1806 28.534 37.0933 28.746 36.9187 28.9205C36.7442 29.0951 36.5322 29.1824 36.2828 29.1824H29.1011V36.5886H37.405C37.6544 36.5886 37.8663 36.6758 38.0409 36.8504C38.2154 37.025 38.3027 37.2369 38.3027 37.4863C38.3027 37.7356 38.2154 37.9476 38.0409 38.1222C37.8663 38.2967 37.6544 38.384 37.405 38.384ZM23.7148 38.3092H14.5879C14.3386 38.3092 14.1266 38.2219 13.9521 38.0474C13.7775 37.8728 13.6902 37.6608 13.6902 37.4115C13.6902 37.1621 13.7775 36.9501 13.9521 36.7756C14.1266 36.601 14.3386 36.5138 14.5879 36.5138H23.7148C23.9641 36.5138 24.1761 36.601 24.3507 36.7756C24.5252 36.9501 24.6125 37.1621 24.6125 37.4115C24.6125 37.6608 24.5252 37.8728 24.3507 38.0474C24.1761 38.2219 23.9641 38.3092 23.7148 38.3092Z" fill="white"/>
</g>
<defs>
<clipPath id="clip0_2001_491">
<rect width="74.81" height="82.27" fill="white" transform="matrix(1 0 0 -1 0 83.1099)"/>
</clipPath>
</defs>
</svg>
