<svg width="69" height="76" viewBox="0 0 69 76" fill="none" xmlns="http://www.w3.org/2000/svg">
<g clip-path="url(#clip0_2001_203)">
<path d="M17.4131 30.5756C17.1864 30.5756 16.9823 30.4962 16.8009 30.3375C16.6196 30.1788 16.5289 29.9861 16.5289 29.7593V21.3929C16.5289 21.1208 16.6082 20.9054 16.7669 20.7467C16.9256 20.588 17.141 20.5086 17.4131 20.5086H25.7796C26.0063 20.5086 26.199 20.5993 26.3577 20.7807C26.5165 20.9621 26.5958 21.1661 26.5958 21.3929C26.5958 21.665 26.4825 21.8917 26.2557 22.0731C26.029 22.2545 25.7796 22.2998 25.5075 22.2091H18.2294V29.7593C18.2294 29.9861 18.15 30.1788 17.9913 30.3375C17.8326 30.4962 17.6399 30.5756 17.4131 30.5756ZM25.7796 67.7145H17.4131C17.1864 67.7145 16.9823 67.6351 16.8009 67.4764C16.6196 67.3177 16.5289 67.125 16.5289 66.8983V37.6497C16.5289 37.4229 16.6082 37.2189 16.7669 37.0375C16.9256 36.8561 17.1297 36.7654 17.3791 36.7654C17.6285 36.7654 17.8326 36.8561 17.9913 37.0375C18.15 37.2189 18.2294 37.4229 18.2294 37.6497V66.082H24.8953V37.6497C24.8953 37.4229 24.9747 37.2189 25.1334 37.0375C25.2921 36.8561 25.4962 36.7654 25.7456 36.7654C25.995 36.7654 26.199 36.8561 26.3577 37.0375C26.5165 37.2189 26.5958 37.4229 26.5958 37.6497V66.8983C26.5958 67.125 26.5165 67.3177 26.3577 67.4764C26.199 67.6351 26.0063 67.7145 25.7796 67.7145ZM34.2821 71.9998H19.7938C19.5671 71.9998 19.3744 71.9204 19.2157 71.7617C19.0569 71.603 18.9776 71.4102 18.9776 71.1835C18.9776 70.9568 19.0569 70.7641 19.2157 70.6053C19.3744 70.4466 19.5671 70.3673 19.7938 70.3673H33.4658V67.7145H9.99894V70.3673H15.3725C15.5993 70.3673 15.792 70.4466 15.9507 70.6053C16.1094 70.7641 16.1888 70.9568 16.1888 71.1835C16.1888 71.4102 16.1094 71.603 15.9507 71.7617C15.792 71.9204 15.5993 71.9998 15.3725 71.9998H9.1827C8.95597 71.9998 8.76324 71.9204 8.60453 71.7617C8.44582 71.603 8.36646 71.4102 8.36646 71.1835V66.8983C8.36646 66.6715 8.44582 66.4788 8.60453 66.3201C8.76324 66.1614 8.95597 66.082 9.1827 66.082H34.2821C34.5088 66.082 34.7015 66.1614 34.8603 66.3201C35.019 66.4788 35.0983 66.6715 35.0983 66.8983V71.1835C35.0983 71.4102 35.019 71.603 34.8603 71.7617C34.7015 71.9204 34.5088 71.9998 34.2821 71.9998ZM25.7796 67.7145C25.5528 67.7145 25.3488 67.6465 25.1674 67.5104L16.8009 59.212C16.6196 59.0306 16.5289 58.8379 16.5289 58.6338C16.5289 58.4298 16.6196 58.237 16.8009 58.0557L24.5552 50.2334L16.8009 42.4791C16.5742 42.2977 16.4835 42.0596 16.5289 41.7649C16.5742 41.4701 16.7329 41.2547 17.005 41.1187L25.3715 36.9695C25.5528 36.9241 25.7342 36.9354 25.9156 37.0035C26.097 37.0715 26.2444 37.1962 26.3577 37.3776C26.4711 37.559 26.5051 37.7403 26.4598 37.9217C26.4144 38.1031 26.3011 38.2618 26.1197 38.3979L18.7735 42.071L26.3237 49.6892C26.5051 49.8706 26.5958 50.0633 26.5958 50.2674C26.5958 50.4714 26.5051 50.6641 26.3237 50.8455L18.5695 58.5998L26.3237 66.3541C26.5505 66.6262 26.5958 66.9096 26.4598 67.2043C26.3237 67.4991 26.097 67.6691 25.7796 67.7145ZM25.7796 42.9552H17.4131C17.1864 42.9552 16.9823 42.8759 16.8009 42.7171C16.6196 42.5584 16.5289 42.3657 16.5289 42.139C16.5289 41.9122 16.6196 41.7195 16.8009 41.5608C16.9823 41.4021 17.1864 41.3227 17.4131 41.3227H25.7796C26.0063 41.3227 26.199 41.4021 26.3577 41.5608C26.5165 41.7195 26.5958 41.9122 26.5958 42.139C26.5958 42.3657 26.5165 42.5584 26.3577 42.7171C26.199 42.8759 26.0063 42.9552 25.7796 42.9552ZM25.7796 59.4161H17.4131C17.1864 59.4161 16.9823 59.3367 16.8009 59.178C16.6196 59.0193 16.5289 58.8265 16.5289 58.5998C16.5289 58.3731 16.6196 58.1804 16.8009 58.0216C16.9823 57.8629 17.1864 57.7836 17.4131 57.7836H25.7796C26.0063 57.7836 26.199 57.8629 26.3577 58.0216C26.5165 58.1804 26.5958 58.3731 26.5958 58.5998C26.5958 58.8265 26.5165 59.0193 26.3577 59.178C26.199 59.3367 26.0063 59.4161 25.7796 59.4161ZM25.7796 51.2537H17.4131C17.141 51.2537 16.9256 51.1743 16.7669 51.0156C16.6082 50.8569 16.5289 50.6528 16.5289 50.4034C16.5289 50.154 16.6196 49.9499 16.8009 49.7912C16.9823 49.6325 17.1864 49.5532 17.4131 49.5532H25.7796C26.0063 49.5532 26.199 49.6325 26.3577 49.7912C26.5165 49.9499 26.5958 50.1427 26.5958 50.3694C26.5958 50.5961 26.5165 50.8002 26.3577 50.9816C26.199 51.163 26.0063 51.2537 25.7796 51.2537ZM25.7796 22.3452H17.4131C17.1864 22.3452 16.9823 22.2658 16.8009 22.1071C16.6196 21.9484 16.5289 21.7556 16.5289 21.5289V11.0538L18.7055 4.52392C18.7508 4.34253 18.8529 4.20649 19.0116 4.11579C19.1703 4.0251 19.3404 3.97975 19.5217 3.97975H23.671C23.8523 3.97975 24.0224 4.0251 24.1811 4.11579C24.3398 4.20649 24.4419 4.34253 24.4872 4.52392L26.5958 11.0538V21.5289C26.5958 21.7556 26.5165 21.9484 26.3577 22.1071C26.199 22.2658 26.0063 22.3452 25.7796 22.3452ZM18.2294 20.7127H24.8953V11.1899L23.0588 5.61224H20.0659L18.2294 11.1899V20.7127ZM25.3034 10.2376H67.2038C67.4305 10.2376 67.6232 10.317 67.7819 10.4757C67.9406 10.6344 68.02 10.8271 68.02 11.0538V17.3797C68.02 17.6064 67.9406 17.7992 67.7819 17.9579C67.6232 18.1166 67.4305 18.1959 67.2038 18.1959H25.3034C25.0767 18.1959 24.884 18.1166 24.7253 17.9579C24.5666 17.7992 24.4872 17.6064 24.4872 17.3797V11.0538C24.4872 10.8271 24.5666 10.6344 24.7253 10.4757C24.884 10.317 25.0767 10.2376 25.3034 10.2376ZM66.3875 11.9381H26.1197V16.4954H66.3875V11.9381ZM0.88426 10.2376H17.5492C17.7759 10.2376 17.9686 10.317 18.1273 10.4757C18.286 10.6344 18.3654 10.8271 18.3654 11.0538V17.3797C18.3654 17.6064 18.286 17.7992 18.1273 17.9579C17.9686 18.1166 17.7759 18.1959 17.5492 18.1959H0.88426C0.657527 18.1959 0.464803 18.1166 0.30609 17.9579C0.147377 17.7992 0.06802 17.6064 0.06802 17.3797V11.0538C0.06802 10.8271 0.147377 10.6344 0.30609 10.4757C0.464803 10.317 0.657527 10.2376 0.88426 10.2376ZM16.7329 11.9381H1.7005V16.4954H16.7329V11.9381ZM9.1827 26.4264H0.81624C0.589507 26.4264 0.396783 26.347 0.23807 26.1883C0.0793567 26.0296 0 25.8368 0 25.6101V17.2437C0 17.0169 0.0793567 16.8242 0.23807 16.6655C0.396783 16.5068 0.589507 16.4274 0.81624 16.4274H9.1827C9.40943 16.4274 9.61349 16.5068 9.79488 16.6655C9.97627 16.8242 10.067 17.0169 10.067 17.2437V19.2162C10.067 19.443 9.9876 19.647 9.82889 19.8284C9.67018 20.0098 9.46612 20.0892 9.21671 20.0665C8.9673 20.0438 8.76324 19.9531 8.60453 19.7944C8.44582 19.6357 8.36646 19.443 8.36646 19.2162V18.0599H1.63248V24.7939H8.36646V23.6375C8.36646 23.4108 8.44582 23.2067 8.60453 23.0254C8.76324 22.844 8.9673 22.7533 9.21671 22.7533C9.46612 22.7533 9.67018 22.844 9.82889 23.0254C9.9876 23.2067 10.067 23.4108 10.067 23.6375V25.6101C10.067 25.8368 9.97627 26.0296 9.79488 26.1883C9.61349 26.347 9.40943 26.4264 9.1827 26.4264ZM25.7796 18.1959C25.5528 18.1959 25.3715 18.1279 25.2354 17.9919L16.869 11.734C16.6876 11.598 16.5855 11.4166 16.5629 11.1899C16.5402 10.9631 16.5969 10.7591 16.7329 10.5777C16.869 10.3963 17.0503 10.2943 17.2771 10.2716C17.5038 10.2489 17.7079 10.3056 17.8893 10.4417L26.2557 16.6995C26.3918 16.7902 26.4938 16.9262 26.5618 17.1076C26.6298 17.289 26.6412 17.4591 26.5958 17.6178C26.5505 17.7765 26.4484 17.9125 26.2897 18.0259C26.131 18.1393 25.961 18.1959 25.7796 18.1959ZM25.8476 22.4132C25.7116 22.4132 25.5982 22.3905 25.5075 22.3452L17.005 18.1279C16.6876 17.9919 16.5175 17.7651 16.4949 17.4477C16.4722 17.1303 16.5969 16.8809 16.869 16.6995L25.2354 10.4417C25.4168 10.3056 25.6209 10.2489 25.8476 10.2716C26.0743 10.2943 26.2557 10.3963 26.3918 10.5777C26.5278 10.7591 26.5845 10.9631 26.5618 11.1899C26.5391 11.4166 26.4371 11.598 26.2557 11.734L18.9776 17.2437L26.2557 20.8487C26.4371 20.9394 26.5731 21.0754 26.6638 21.2568C26.7545 21.4382 26.7772 21.6196 26.7319 21.801C26.6865 21.9824 26.5731 22.1411 26.3918 22.2771C26.2104 22.4132 26.029 22.4585 25.8476 22.4132ZM62.9865 18.1959C62.8051 18.1959 62.6464 18.1506 62.5104 18.0599L54.6201 12.1422L46.7297 18.0599C46.4123 18.2866 46.0949 18.2866 45.7775 18.0599L37.8871 12.1422L30.0648 17.9919C29.8835 18.1279 29.6794 18.1846 29.4527 18.1619C29.2259 18.1393 29.0445 18.0372 28.9085 17.8558C28.7725 17.6744 28.7158 17.4704 28.7385 17.2437C28.7611 17.0169 28.8632 16.8355 29.0445 16.6995L37.411 10.4417C37.547 10.3056 37.7171 10.2376 37.9212 10.2376C38.1252 10.2376 38.2953 10.3056 38.4313 10.4417L46.2536 16.3594L54.1439 10.4417C54.28 10.3056 54.45 10.2376 54.6541 10.2376C54.8581 10.2376 55.0282 10.3056 55.1642 10.4417L63.5307 16.6995C63.7121 16.7902 63.8254 16.9262 63.8708 17.1076C63.9161 17.289 63.9048 17.4704 63.8368 17.6518C63.7687 17.8332 63.6554 17.9805 63.4967 18.0939C63.338 18.2073 63.1679 18.2413 62.9865 18.1959ZM13.3999 18.1959C13.2186 18.1959 13.0372 18.1506 12.8558 18.0599L4.55734 11.734C4.37595 11.598 4.26259 11.4166 4.21724 11.1899C4.17189 10.9631 4.21724 10.7591 4.35328 10.5777C4.48932 10.3963 4.67071 10.2943 4.89744 10.2716C5.12417 10.2489 5.32823 10.3056 5.50962 10.4417L13.8761 16.6995C14.0121 16.7902 14.1142 16.9262 14.1822 17.1076C14.2502 17.289 14.2615 17.4591 14.2162 17.6178C14.1708 17.7765 14.0688 17.9125 13.9101 18.0259C13.7514 18.1393 13.5813 18.1959 13.3999 18.1959ZM50.4708 16.4274H62.9865C63.2133 16.4274 63.4173 16.5068 63.5987 16.6655C63.7801 16.8242 63.8708 17.0169 63.8708 17.2437V21.3929C63.8708 21.665 63.7914 21.8804 63.6327 22.0391C63.474 22.1978 63.2586 22.2771 62.9865 22.2771H50.4708C50.2441 22.2771 50.0514 22.1864 49.8927 22.0051C49.734 21.8237 49.6546 21.6196 49.6546 21.3929V17.2437C49.6546 17.0169 49.734 16.8242 49.8927 16.6655C50.0514 16.5068 50.2441 16.4274 50.4708 16.4274ZM62.1703 18.0599H51.2871V20.5766H62.1703V18.0599ZM58.8373 47.1725H54.6201C54.4387 47.1725 54.2686 47.1044 54.1099 46.9684C53.9512 46.8324 53.8492 46.6736 53.8038 46.4923L51.7632 38.1258C51.6725 37.8537 51.7179 37.6156 51.8993 37.4116C52.0806 37.2075 52.3074 37.1055 52.5795 37.1055H60.8779C61.15 37.1055 61.3767 37.2075 61.5581 37.4116C61.7395 37.6156 61.7848 37.8537 61.6941 38.1258L59.6535 46.4923C59.6082 46.6736 59.5062 46.8324 59.3475 46.9684C59.1887 47.1044 59.0187 47.1725 58.8373 47.1725ZM55.3003 45.472H58.1571L59.8576 38.806H53.5998L55.3003 45.472ZM56.7287 59.5521C55.3683 59.5521 54.1893 59.0646 53.1916 58.0897C52.194 57.1147 51.6952 55.947 51.6952 54.5866C51.6952 54.3599 51.7746 54.1558 51.9333 53.9745C52.092 53.7931 52.296 53.7024 52.5455 53.7024C52.7949 53.7024 52.9989 53.7931 53.1576 53.9745C53.3163 54.1558 53.3957 54.3599 53.3957 54.5866C53.3957 55.4936 53.7245 56.2645 54.382 56.8993C55.0395 57.5342 55.8331 57.8516 56.7627 57.8516C57.6923 57.8516 58.4745 57.5228 59.1094 56.8653C59.7442 56.2078 60.0617 55.4142 60.0617 54.4846C60.0617 53.555 59.7329 52.7728 59.0754 52.1379C58.4178 51.5031 57.6356 51.1856 56.7287 51.1856C56.5019 51.1856 56.3092 51.1063 56.1505 50.9476C55.9918 50.7889 55.9124 50.5961 55.9124 50.3694V46.2202C55.9124 45.9934 55.9918 45.8007 56.1505 45.642C56.3092 45.4833 56.5019 45.4039 56.7287 45.4039C56.9554 45.4039 57.1481 45.4833 57.3069 45.642C57.4656 45.8007 57.5449 45.9934 57.5449 46.2202V49.6212C58.7693 49.8933 59.7556 50.5394 60.5038 51.5597C61.252 52.58 61.5694 53.7137 61.4561 54.9607C61.3427 56.2078 60.8439 57.2621 59.9596 58.1237C59.0754 58.9853 57.9984 59.4614 56.7287 59.5521ZM56.7287 38.942C56.5019 38.942 56.3092 38.8627 56.1505 38.704C55.9918 38.5453 55.9124 38.3525 55.9124 38.1258V21.3249C55.9124 21.0981 55.9918 20.9054 56.1505 20.7467C56.3092 20.588 56.5019 20.5086 56.7287 20.5086C56.9554 20.5086 57.1481 20.588 57.3069 20.7467C57.4656 20.9054 57.5449 21.0981 57.5449 21.3249V38.1258C57.5449 38.3525 57.4656 38.5453 57.3069 38.704C57.1481 38.8627 56.9554 38.942 56.7287 38.942ZM54.8241 11.9381C54.7788 11.9381 54.7334 11.9154 54.6881 11.8701L23.3309 5.61224C23.1041 5.56689 22.9227 5.45352 22.7867 5.27213C22.6507 5.09075 22.6053 4.88669 22.6507 4.65996C22.696 4.43322 22.8094 4.25183 22.9908 4.11579C23.1721 3.97975 23.3762 3.93441 23.6029 3.97975L55.0282 10.2376C55.2549 10.2376 55.4476 10.3283 55.6063 10.5097C55.7651 10.6911 55.8331 10.9065 55.8104 11.1559C55.7877 11.4053 55.6857 11.598 55.5043 11.734C55.3229 11.8701 55.1189 11.9381 54.8921 11.9381H54.8241ZM0.88426 11.9381C0.47614 11.9381 0.226733 11.734 0.13604 11.3259C0.0453467 11.0992 0.0566833 10.8951 0.17005 10.7137C0.283417 10.5323 0.430793 10.3963 0.61218 10.3056L19.3857 4.04778C19.6124 3.95708 19.8278 3.95708 20.0319 4.04778C20.236 4.13847 20.3833 4.29718 20.474 4.52392C20.5647 4.75065 20.5534 4.97738 20.44 5.20412C20.3266 5.43085 20.1566 5.56689 19.9299 5.61224L1.15634 11.8701C1.06565 11.9154 0.974953 11.9381 0.88426 11.9381ZM34.078 38.942H21.4943C21.2676 38.942 21.0749 38.8513 20.9162 38.67C20.7574 38.4886 20.6781 38.2845 20.6781 38.0578V21.3929C20.6781 21.1661 20.7574 20.9734 20.9162 20.8147C21.0749 20.656 21.2676 20.5766 21.4943 20.5766H25.7796C27.8655 20.5766 29.7247 21.2002 31.3572 22.4472C32.9897 23.6942 34.078 25.3154 34.6222 27.3106C34.6675 27.5373 34.6335 27.7527 34.5201 27.9568C34.4068 28.1609 34.2367 28.2856 34.01 28.3309C33.7833 28.3763 33.5679 28.3423 33.3638 28.2289C33.1598 28.1155 33.035 27.9455 32.9897 27.7187C32.5362 26.0863 31.6406 24.7599 30.3029 23.7396C28.9652 22.7193 27.4574 22.2091 25.7796 22.2091H22.3106V37.2415H33.2618V31.936C33.2618 31.7092 33.3411 31.5165 33.4999 31.3578C33.6586 31.1991 33.8513 31.1197 34.078 31.1197C34.3048 31.1197 34.4975 31.1991 34.6562 31.3578C34.8149 31.5165 34.8943 31.7092 34.8943 31.936V38.0578C34.8943 38.2845 34.8149 38.4886 34.6562 38.67C34.4975 38.8513 34.3048 38.942 34.078 38.942ZM13.2639 28.8071H21.5623C21.7891 28.8071 21.9818 28.8864 22.1405 29.0451C22.2992 29.2038 22.3786 29.3966 22.3786 29.6233V38.0578C22.3786 38.2845 22.2992 38.4772 22.1405 38.6359C21.9818 38.7947 21.7891 38.874 21.5623 38.874H13.2639C13.0372 38.874 12.8444 38.7947 12.6857 38.6359C12.527 38.4772 12.4477 38.2845 12.4477 38.0578V29.6233C12.4477 29.3966 12.527 29.2038 12.6857 29.0451C12.8444 28.8864 13.0372 28.8071 13.2639 28.8071ZM20.7461 30.5076H14.0801V37.1735H20.7461V30.5076ZM34.01 34.7248H25.6435C25.4168 34.7248 25.2241 34.6454 25.0654 34.4867C24.9067 34.328 24.8273 34.1353 24.8273 33.9086V25.5421C24.8273 25.3154 24.9067 25.1226 25.0654 24.9639C25.2241 24.8052 25.4168 24.7259 25.6435 24.7259H32.9897C33.2164 24.7259 33.4092 24.8052 33.5679 24.9639C33.7266 25.1226 33.8059 25.3154 33.8059 25.5421C33.8059 25.7688 33.7266 25.9616 33.5679 26.1203C33.4092 26.279 33.2164 26.3583 32.9897 26.3583H26.4598V33.0923H34.01C34.2367 33.0923 34.4295 33.1717 34.5882 33.3304C34.7469 33.4891 34.8262 33.6818 34.8262 33.9086C34.8262 34.1353 34.7469 34.328 34.5882 34.4867C34.4295 34.6454 34.2367 34.7248 34.01 34.7248ZM21.5623 34.6568H13.2639C13.0372 34.6568 12.8444 34.5774 12.6857 34.4187C12.527 34.26 12.4477 34.0673 12.4477 33.8405C12.4477 33.6138 12.527 33.4211 12.6857 33.2624C12.8444 33.1037 13.0372 33.0243 13.2639 33.0243H21.5623C21.7891 33.0243 21.9818 33.1037 22.1405 33.2624C22.2992 33.4211 22.3786 33.6138 22.3786 33.8405C22.3786 34.0673 22.2992 34.26 22.1405 34.4187C21.9818 34.5774 21.7891 34.6568 21.5623 34.6568Z" fill="#3763EB"/>
</g>
<defs>
<clipPath id="clip0_2001_203">
<rect width="68.02" height="74.8" fill="white" transform="matrix(1 0 0 -1 0 75.3898)"/>
</clipPath>
</defs>
</svg>
