<svg width="75" height="84" viewBox="0 0 75 84" fill="none" xmlns="http://www.w3.org/2000/svg">
<g clip-path="url(#clip0_2001_462)">
<path d="M46.1578 47.5108C45.9084 47.5108 45.684 47.436 45.4845 47.2864C45.285 47.1368 45.1852 46.9373 45.1852 46.6879L43.3898 6.36533H26.8568L25.9591 26.3396C25.9591 26.589 25.8593 26.8009 25.6598 26.9755C25.4603 27.15 25.2484 27.2248 25.0239 27.1999C24.7995 27.175 24.6 27.0752 24.4255 26.9007C24.2509 26.7261 24.1636 26.5142 24.1636 26.2648L25.0613 5.46761C25.0613 5.21824 25.1486 5.00628 25.3232 4.83172C25.4977 4.65717 25.7097 4.56989 25.9591 4.56989H44.2875C44.5369 4.56989 44.7488 4.65717 44.9234 4.83172C45.098 5.00628 45.1852 5.21824 45.1852 5.46761L47.0555 46.5383C47.0555 46.7877 46.9682 47.0121 46.7937 47.2116C46.6191 47.4111 46.4071 47.5108 46.1578 47.5108ZM24.1636 47.436H24.0888C23.8395 47.436 23.6275 47.3487 23.4529 47.1742C23.2784 46.9996 23.1911 46.7877 23.1911 46.5383L23.9392 30.9778C23.9392 30.7284 24.0389 30.5165 24.2384 30.3419C24.4379 30.1674 24.6624 30.0801 24.9117 30.0801C25.1611 30.0801 25.3606 30.1798 25.5102 30.3793C25.6598 30.5788 25.7346 30.8033 25.7346 31.0526L25.0613 46.6131C25.0613 46.8625 24.9741 47.062 24.7995 47.2116C24.625 47.3612 24.413 47.436 24.1636 47.436ZM68.526 47.5108C68.2766 47.5108 68.0522 47.436 67.8527 47.2864C67.6532 47.1368 67.5534 46.9373 67.5534 46.6879L66.2068 15.4921H58.8007L58.0526 30.9778C58.0526 31.2272 57.9528 31.4391 57.7533 31.6137C57.5538 31.7883 57.3419 31.8631 57.1174 31.8381C56.893 31.8132 56.6935 31.7134 56.519 31.5389C56.3444 31.3643 56.2571 31.1524 56.2571 30.903L57.0052 14.5944C57.0052 14.3451 57.0925 14.1331 57.2671 13.9585C57.4416 13.784 57.6536 13.6967 57.9029 13.6967H67.0298C67.2791 13.6967 67.4911 13.784 67.6656 13.9585C67.8402 14.1331 67.9275 14.3451 67.9275 14.5944L69.4237 46.5383C69.4237 46.7877 69.3364 47.0121 69.1618 47.2116C68.9873 47.4111 68.7753 47.5108 68.526 47.5108ZM56.4815 47.436H56.4067C56.1574 47.436 55.9579 47.3487 55.8083 47.1742C55.6586 46.9996 55.5838 46.7877 55.5838 46.5383L56.0327 35.616C56.0327 35.3667 56.1324 35.1672 56.3319 35.0176C56.5314 34.8679 56.7559 34.7931 57.0052 34.7931C57.2546 34.7931 57.4665 34.8804 57.6411 35.055C57.8157 35.2295 57.9029 35.4415 57.9029 35.6908L57.3793 46.6131C57.3793 46.8625 57.292 47.062 57.1174 47.2116C56.9429 47.3612 56.7309 47.436 56.4815 47.436ZM44.4371 10.9287H25.8095C25.5601 10.9287 25.3357 10.8415 25.1362 10.6669C24.9367 10.4923 24.8369 10.2804 24.8369 10.031C24.8369 9.78165 24.9367 9.56969 25.1362 9.39513C25.3357 9.22057 25.5601 9.13329 25.8095 9.13329H44.4371C44.6865 9.13329 44.9109 9.22057 45.1104 9.39513C45.3099 9.56969 45.4097 9.78165 45.4097 10.031C45.4097 10.2804 45.3099 10.4923 45.1104 10.6669C44.9109 10.8415 44.6865 10.9287 44.4371 10.9287ZM44.6616 15.4921H25.585C25.3357 15.4921 25.1237 15.4049 24.9491 15.2303C24.7746 15.0558 24.6873 14.8438 24.6873 14.5944C24.6873 14.3451 24.7746 14.1331 24.9491 13.9585C25.1237 13.784 25.3357 13.6967 25.585 13.6967H44.6616C44.9109 13.6967 45.1229 13.784 45.2975 13.9585C45.472 14.1331 45.5593 14.3451 45.5593 14.5944C45.5593 14.8438 45.472 15.0558 45.2975 15.2303C45.1229 15.4049 44.9109 15.4921 44.6616 15.4921ZM67.2542 20.1304H57.6785C57.4291 20.1304 57.2172 20.0306 57.0426 19.8311C56.8681 19.6316 56.7808 19.4072 56.7808 19.1578C56.7808 18.9085 56.8681 18.6965 57.0426 18.5219C57.2172 18.3474 57.4291 18.2601 57.6785 18.2601H67.2542C67.5036 18.2601 67.7155 18.3474 67.8901 18.5219C68.0646 18.6965 68.1519 18.9085 68.1519 19.1578C68.1519 19.4072 68.0646 19.6316 67.8901 19.8311C67.7155 20.0306 67.5036 20.1304 67.2542 20.1304ZM67.4786 24.619H57.4541C57.2047 24.619 56.9928 24.5317 56.8182 24.3571C56.6436 24.1826 56.5564 23.9706 56.5564 23.7212C56.5564 23.4719 56.6436 23.2599 56.8182 23.0854C56.9928 22.9108 57.2047 22.8235 57.4541 22.8235H67.4786C67.728 22.8235 67.9399 22.9108 68.1145 23.0854C68.2891 23.2599 68.3763 23.4719 68.3763 23.7212C68.3763 23.9706 68.2891 24.1826 68.1145 24.3571C67.9399 24.5317 67.728 24.619 67.4786 24.619ZM18.0292 50.204H24.8369C25.0863 50.204 25.3107 50.2913 25.5102 50.4658C25.7097 50.6404 25.8095 50.8523 25.8095 51.1017V57.9094C25.8095 58.2087 25.7222 58.4456 25.5476 58.6201C25.3731 58.7947 25.1362 58.8819 24.8369 58.8819H18.0292C17.7798 58.8819 17.5679 58.7822 17.3933 58.5827C17.2188 58.3832 17.1315 58.1588 17.1315 57.9094V51.1017C17.1315 50.8523 17.2188 50.6404 17.3933 50.4658C17.5679 50.2913 17.7798 50.204 18.0292 50.204ZM23.9392 51.9994H18.9269V57.0117H23.9392V51.9994ZM31.7194 50.204H38.5271C38.7765 50.204 39.0009 50.2913 39.2004 50.4658C39.3999 50.6404 39.4997 50.8523 39.4997 51.1017V57.9094C39.4997 58.2087 39.4124 58.4456 39.2378 58.6201C39.0633 58.7947 38.8264 58.8819 38.5271 58.8819H31.7194C31.4701 58.8819 31.2581 58.7822 31.0836 58.5827C30.909 58.3832 30.8217 58.1588 30.8217 57.9094V51.1017C30.8217 50.8523 30.909 50.6404 31.0836 50.4658C31.2581 50.2913 31.4701 50.204 31.7194 50.204ZM37.6294 51.9994H32.6172V57.0117H37.6294V51.9994ZM45.4097 50.204H52.2174C52.4667 50.204 52.6787 50.2913 52.8533 50.4658C53.0278 50.6404 53.1151 50.8523 53.1151 51.1017V57.9094C53.1151 58.1588 53.0278 58.3832 52.8533 58.5827C52.6787 58.7822 52.4667 58.8819 52.2174 58.8819H45.4097C45.1104 58.8819 44.8735 58.7947 44.699 58.6201C44.5244 58.4456 44.4371 58.2087 44.4371 57.9094V51.1017C44.4371 50.8523 44.5369 50.6404 44.7364 50.4658C44.9359 50.2913 45.1603 50.204 45.4097 50.204ZM51.3197 51.9994H46.3074V57.0117H51.3197V51.9994ZM59.0251 50.204H65.9076C66.157 50.204 66.3689 50.2913 66.5435 50.4658C66.718 50.6404 66.8053 50.8523 66.8053 51.1017V57.9094C66.8053 58.1588 66.718 58.3832 66.5435 58.5827C66.3689 58.7822 66.157 58.8819 65.9076 58.8819H59.0251C58.7757 58.8819 58.5638 58.7822 58.3892 58.5827C58.2146 58.3832 58.1274 58.1588 58.1274 57.9094V51.1017C58.1274 50.8523 58.2146 50.6404 58.3892 50.4658C58.5638 50.2913 58.7757 50.204 59.0251 50.204ZM65.0099 51.9994H59.9976V57.0117H65.0099V51.9994ZM10.0245 45.5658H73.9123C74.1616 45.5658 74.3736 45.653 74.5482 45.8276C74.7227 46.0022 74.81 46.2141 74.81 46.4635V78.4822C74.81 78.7315 74.7227 78.9435 74.5482 79.118C74.3736 79.2926 74.1616 79.3799 73.9123 79.3799H10.0245C9.77517 79.3799 9.56321 79.2926 9.38865 79.118C9.2141 78.9435 9.12682 78.7315 9.12682 78.4822V46.4635C9.12682 46.2141 9.2141 46.0022 9.38865 45.8276C9.56321 45.653 9.77517 45.5658 10.0245 45.5658ZM73.0146 47.3612H10.9971V77.5844H73.0146V47.3612ZM5.46113 59.256H10.0245C10.2739 59.256 10.4983 59.3433 10.6978 59.5178C10.8973 59.6924 10.9971 59.9043 10.9971 60.1537V64.7919C10.9971 65.0413 10.8973 65.2533 10.6978 65.4278C10.4983 65.6024 10.2739 65.6897 10.0245 65.6897H6.95733C6.65809 65.7395 6.48353 65.9141 6.43366 66.2133V78.4822C6.43366 78.7315 6.33391 78.9435 6.13442 79.118C5.93493 79.2926 5.7105 79.3799 5.46113 79.3799H0.89772C0.648353 79.3799 0.436392 79.2926 0.261835 79.118C0.0872783 78.9435 0 78.7315 0 78.4822V64.7171C0 63.2209 0.536138 61.9367 1.60842 60.8644C2.68069 59.7921 3.96493 59.256 5.46113 59.256ZM9.12682 61.1262H5.46113C4.46366 61.1262 3.60335 61.4754 2.88018 62.1736C2.15702 62.8718 1.79544 63.7197 1.79544 64.7171V77.5844H4.56341V66.2133C4.56341 65.565 4.80031 65.0039 5.27411 64.5301C5.7479 64.0563 6.30898 63.8194 6.95733 63.8194H9.12682V61.1262ZM55.6586 79.3799H28.2782C28.0288 79.3799 27.8169 79.2926 27.6423 79.118C27.4677 78.9435 27.3805 78.7315 27.3805 78.4822V64.7919C27.3805 64.5426 27.4677 64.3181 27.6423 64.1186C27.8169 63.9191 28.0288 63.8194 28.2782 63.8194H32.7668C33.0161 63.8194 33.2406 63.9067 33.4401 64.0812C33.6396 64.2558 33.7268 64.4802 33.7019 64.7545C33.677 65.0288 33.5772 65.2533 33.4027 65.4278C33.2281 65.6024 33.0161 65.6897 32.7668 65.6897H29.1759V77.5844H54.7609V65.6897H37.6294C37.3801 65.6897 37.1681 65.6024 36.9935 65.4278C36.819 65.2533 36.7192 65.0288 36.6943 64.7545C36.6694 64.4802 36.7566 64.2558 36.9561 64.0812C37.1556 63.9067 37.3801 63.8194 37.6294 63.8194H55.6586C55.908 63.8194 56.12 63.9191 56.2945 64.1186C56.4691 64.3181 56.5564 64.5426 56.5564 64.7919V78.4822C56.5564 78.7315 56.4691 78.9435 56.2945 79.118C56.12 79.2926 55.908 79.3799 55.6586 79.3799ZM10.0245 68.4576H28.353C28.6024 68.4576 28.8143 68.5449 28.9889 68.7195C29.1634 68.894 29.2507 69.106 29.2507 69.3553V73.9188C29.2507 74.1681 29.1634 74.3801 28.9889 74.5546C28.8143 74.7292 28.6024 74.8165 28.353 74.8165H10.0245C9.77517 74.8165 9.56321 74.7292 9.38865 74.5546C9.2141 74.3801 9.12682 74.1681 9.12682 73.9188V69.3553C9.12682 69.106 9.2141 68.894 9.38865 68.7195C9.56321 68.5449 9.77517 68.4576 10.0245 68.4576ZM27.4553 70.2531H10.9971V73.021H27.4553V70.2531ZM55.5838 68.4576H73.9123C74.1616 68.4576 74.3736 68.5449 74.5482 68.7195C74.7227 68.894 74.81 69.106 74.81 69.3553V73.9188C74.81 74.1681 74.7227 74.3801 74.5482 74.5546C74.3736 74.7292 74.1616 74.8165 73.9123 74.8165H55.5838C55.3345 74.8165 55.1225 74.7292 54.9479 74.5546C54.7734 74.3801 54.6861 74.1681 54.6861 73.9188V69.3553C54.6861 69.106 54.7734 68.894 54.9479 68.7195C55.1225 68.5449 55.3345 68.4576 55.5838 68.4576ZM73.0146 70.2531H56.5564V73.021H73.0146V70.2531ZM41.9684 79.3799C41.719 79.3799 41.5071 79.2926 41.3325 79.118C41.158 78.9435 41.0707 78.7315 41.0707 78.4822V64.7919C41.0707 64.5426 41.158 64.3181 41.3325 64.1186C41.5071 63.9191 41.719 63.8194 41.9684 63.8194C42.2178 63.8194 42.4297 63.9191 42.6043 64.1186C42.7789 64.3181 42.8661 64.5426 42.8661 64.7919V78.4822C42.8661 78.7315 42.7789 78.9435 42.6043 79.118C42.4297 79.2926 42.2178 79.3799 41.9684 79.3799Z" fill="white"/>
</g>
<defs>
<clipPath id="clip0_2001_462">
<rect width="74.81" height="82.27" fill="white" transform="matrix(1 0 0 -1 0 83.1099)"/>
</clipPath>
</defs>
</svg>
