<svg width="69" height="76" viewBox="0 0 69 76" fill="none" xmlns="http://www.w3.org/2000/svg">
<g clip-path="url(#clip0_2001_176)">
<path d="M41.9683 43.0232C41.7416 43.0232 41.5375 42.9552 41.3562 42.8192C41.1748 42.6831 41.0841 42.5017 41.0841 42.275L39.4516 5.61224H24.4192L23.6029 23.7736C23.6029 24.0003 23.5122 24.193 23.3309 24.3517C23.1495 24.5105 22.9568 24.5785 22.7527 24.5558C22.5486 24.5331 22.3672 24.4424 22.2085 24.2837C22.0498 24.125 21.9705 23.9323 21.9705 23.7056L22.7867 4.796C22.7867 4.56926 22.8661 4.37654 23.0248 4.21783C23.1835 4.05911 23.3762 3.97975 23.6029 3.97975H40.2678C40.4946 3.97975 40.6873 4.05911 40.846 4.21783C41.0047 4.37654 41.0841 4.56926 41.0841 4.796L42.7846 42.139C42.7846 42.3657 42.7052 42.5698 42.5465 42.7512C42.3878 42.9325 42.1951 43.0232 41.9683 43.0232ZM21.9705 42.9552H21.9024C21.6757 42.9552 21.483 42.8759 21.3243 42.7171C21.1656 42.5584 21.0862 42.3657 21.0862 42.139L21.7664 27.9908C21.7664 27.7641 21.8571 27.5714 22.0385 27.4126C22.2199 27.2539 22.4239 27.1746 22.6507 27.1746C22.8774 27.1746 23.0588 27.2653 23.1948 27.4467C23.3309 27.628 23.3989 27.8321 23.3989 28.0588L22.7867 42.207C22.7867 42.4337 22.7073 42.6151 22.5486 42.7512C22.3899 42.8872 22.1972 42.9552 21.9705 42.9552ZM62.3063 43.0232C62.0796 43.0232 61.8755 42.9552 61.6941 42.8192C61.5128 42.6831 61.4221 42.5017 61.4221 42.275L60.1977 13.9107H53.4637L52.7835 27.9908C52.7835 28.2175 52.6928 28.4103 52.5114 28.569C52.3301 28.7277 52.1373 28.7957 51.9333 28.773C51.7292 28.7504 51.5478 28.6597 51.3891 28.501C51.2304 28.3423 51.151 28.1495 51.151 27.9228L51.8312 13.0944C51.8312 12.8677 51.9106 12.675 52.0693 12.5163C52.228 12.3576 52.4207 12.2782 52.6475 12.2782H60.9459C61.1727 12.2782 61.3654 12.3576 61.5241 12.5163C61.6828 12.675 61.7622 12.8677 61.7622 13.0944L63.1226 42.139C63.1226 42.3657 63.0432 42.5698 62.8845 42.7512C62.7258 42.9325 62.5331 43.0232 62.3063 43.0232ZM51.3551 42.9552H51.2871C51.0603 42.9552 50.879 42.8759 50.7429 42.7171C50.6069 42.5584 50.5389 42.3657 50.5389 42.139L50.947 32.2081C50.947 31.9813 51.0377 31.7999 51.2191 31.6639C51.4004 31.5279 51.6045 31.4598 51.8312 31.4598C52.058 31.4598 52.2507 31.5392 52.4094 31.6979C52.5681 31.8566 52.6475 32.0493 52.6475 32.2761L52.1713 42.207C52.1713 42.4337 52.092 42.6151 51.9333 42.7512C51.7746 42.8872 51.5818 42.9552 51.3551 42.9552ZM40.4039 9.76146H23.4669C23.2402 9.76146 23.0361 9.6821 22.8547 9.52338C22.6733 9.36467 22.5826 9.17195 22.5826 8.94521C22.5826 8.71848 22.6733 8.52576 22.8547 8.36705C23.0361 8.20833 23.2402 8.12897 23.4669 8.12897H40.4039C40.6306 8.12897 40.8347 8.20833 41.0161 8.36705C41.1974 8.52576 41.2881 8.71848 41.2881 8.94521C41.2881 9.17195 41.1974 9.36467 41.0161 9.52338C40.8347 9.6821 40.6306 9.76146 40.4039 9.76146ZM40.6079 13.9107H23.2628C23.0361 13.9107 22.8434 13.8313 22.6847 13.6726C22.526 13.5139 22.4466 13.3212 22.4466 13.0944C22.4466 12.8677 22.526 12.675 22.6847 12.5163C22.8434 12.3576 23.0361 12.2782 23.2628 12.2782H40.6079C40.8347 12.2782 41.0274 12.3576 41.1861 12.5163C41.3448 12.675 41.4242 12.8677 41.4242 13.0944C41.4242 13.3212 41.3448 13.5139 41.1861 13.6726C41.0274 13.8313 40.8347 13.9107 40.6079 13.9107ZM61.15 18.1279H52.4434C52.2167 18.1279 52.024 18.0372 51.8652 17.8558C51.7065 17.6744 51.6272 17.4704 51.6272 17.2437C51.6272 17.0169 51.7065 16.8242 51.8652 16.6655C52.024 16.5068 52.2167 16.4274 52.4434 16.4274H61.15C61.3767 16.4274 61.5694 16.5068 61.7281 16.6655C61.8869 16.8242 61.9662 17.0169 61.9662 17.2437C61.9662 17.4704 61.8869 17.6744 61.7281 17.8558C61.5694 18.0372 61.3767 18.1279 61.15 18.1279ZM61.354 22.2091H52.2394C52.0126 22.2091 51.8199 22.1298 51.6612 21.971C51.5025 21.8123 51.4231 21.6196 51.4231 21.3929C51.4231 21.1661 51.5025 20.9734 51.6612 20.8147C51.8199 20.656 52.0126 20.5766 52.2394 20.5766H61.354C61.5808 20.5766 61.7735 20.656 61.9322 20.8147C62.0909 20.9734 62.1703 21.1661 62.1703 21.3929C62.1703 21.6196 62.0909 21.8123 61.9322 21.971C61.7735 22.1298 61.5808 22.2091 61.354 22.2091ZM16.3928 45.472H22.5826C22.8094 45.472 23.0134 45.5513 23.1948 45.71C23.3762 45.8687 23.4669 46.0615 23.4669 46.2882V52.478C23.4669 52.7501 23.3875 52.9655 23.2288 53.1242C23.0701 53.2829 22.8547 53.3623 22.5826 53.3623H16.3928C16.1661 53.3623 15.9734 53.2716 15.8147 53.0902C15.6559 52.9088 15.5766 52.7047 15.5766 52.478V46.2882C15.5766 46.0615 15.6559 45.8687 15.8147 45.71C15.9734 45.5513 16.1661 45.472 16.3928 45.472ZM21.7664 47.1044H17.2091V51.6618H21.7664V47.1044ZM28.8405 45.472H35.0303C35.257 45.472 35.4611 45.5513 35.6425 45.71C35.8239 45.8687 35.9146 46.0615 35.9146 46.2882V52.478C35.9146 52.7501 35.8352 52.9655 35.6765 53.1242C35.5178 53.2829 35.3024 53.3623 35.0303 53.3623H28.8405C28.6137 53.3623 28.421 53.2716 28.2623 53.0902C28.1036 52.9088 28.0242 52.7047 28.0242 52.478V46.2882C28.0242 46.0615 28.1036 45.8687 28.2623 45.71C28.421 45.5513 28.6137 45.472 28.8405 45.472ZM34.2141 47.1044H29.6567V51.6618H34.2141V47.1044ZM41.2881 45.472H47.478C47.7047 45.472 47.8974 45.5513 48.0561 45.71C48.2148 45.8687 48.2942 46.0615 48.2942 46.2882V52.478C48.2942 52.7047 48.2148 52.9088 48.0561 53.0902C47.8974 53.2716 47.7047 53.3623 47.478 53.3623H41.2881C41.0161 53.3623 40.8007 53.2829 40.642 53.1242C40.4832 52.9655 40.4039 52.7501 40.4039 52.478V46.2882C40.4039 46.0615 40.4946 45.8687 40.676 45.71C40.8573 45.5513 41.0614 45.472 41.2881 45.472ZM46.6617 47.1044H42.1044V51.6618H46.6617V47.1044ZM53.6678 45.472H59.9256C60.1524 45.472 60.3451 45.5513 60.5038 45.71C60.6625 45.8687 60.7419 46.0615 60.7419 46.2882V52.478C60.7419 52.7047 60.6625 52.9088 60.5038 53.0902C60.3451 53.2716 60.1524 53.3623 59.9256 53.3623H53.6678C53.441 53.3623 53.2483 53.2716 53.0896 53.0902C52.9309 52.9088 52.8515 52.7047 52.8515 52.478V46.2882C52.8515 46.0615 52.9309 45.8687 53.0896 45.71C53.2483 45.5513 53.441 45.472 53.6678 45.472ZM59.1094 47.1044H54.552V51.6618H59.1094V47.1044ZM9.11468 41.2547H67.2038C67.4305 41.2547 67.6232 41.3341 67.7819 41.4928C67.9406 41.6515 68.02 41.8442 68.02 42.071V71.1835C68.02 71.4102 67.9406 71.603 67.7819 71.7617C67.6232 71.9204 67.4305 71.9998 67.2038 71.9998H9.11468C8.88795 71.9998 8.69522 71.9204 8.53651 71.7617C8.3778 71.603 8.29844 71.4102 8.29844 71.1835V42.071C8.29844 41.8442 8.3778 41.6515 8.53651 41.4928C8.69522 41.3341 8.88795 41.2547 9.11468 41.2547ZM66.3875 42.8872H9.99894V70.3673H66.3875V42.8872ZM4.96546 53.7024H9.11468C9.34141 53.7024 9.54547 53.7817 9.72686 53.9404C9.90825 54.0992 9.99894 54.2919 9.99894 54.5186V58.7359C9.99894 58.9626 9.90825 59.1553 9.72686 59.314C9.54547 59.4727 9.34141 59.5521 9.11468 59.5521H6.32586C6.05378 59.5974 5.89507 59.7562 5.84972 60.0282V71.1835C5.84972 71.4102 5.75903 71.603 5.57764 71.7617C5.39625 71.9204 5.19219 71.9998 4.96546 71.9998H0.81624C0.589507 71.9998 0.396783 71.9204 0.23807 71.7617C0.0793567 71.603 0 71.4102 0 71.1835V58.6678C0 57.3074 0.487477 56.1398 1.46243 55.1648C2.43738 54.1899 3.60506 53.7024 4.96546 53.7024ZM8.29844 55.4029H4.96546C4.05853 55.4029 3.2763 55.7203 2.61877 56.3552C1.96124 56.99 1.63248 57.7609 1.63248 58.6678V70.3673H4.14922V60.0282C4.14922 59.4387 4.36462 58.9286 4.79541 58.4978C5.2262 58.067 5.73635 57.8516 6.32586 57.8516H8.29844V55.4029ZM50.6069 71.9998H25.7116C25.4848 71.9998 25.2921 71.9204 25.1334 71.7617C24.9747 71.603 24.8953 71.4102 24.8953 71.1835V58.7359C24.8953 58.5091 24.9747 58.3051 25.1334 58.1237C25.2921 57.9423 25.4848 57.8516 25.7116 57.8516H29.7928C30.0195 57.8516 30.2236 57.931 30.4049 58.0897C30.5863 58.2484 30.6657 58.4524 30.643 58.7018C30.6203 58.9513 30.5296 59.1553 30.3709 59.314C30.2122 59.4727 30.0195 59.5521 29.7928 59.5521H26.5278V70.3673H49.7906V59.5521H34.2141C33.9873 59.5521 33.7946 59.4727 33.6359 59.314C33.4772 59.1553 33.3865 58.9513 33.3638 58.7018C33.3411 58.4524 33.4205 58.2484 33.6019 58.0897C33.7833 57.931 33.9873 57.8516 34.2141 57.8516H50.6069C50.8336 57.8516 51.0263 57.9423 51.1851 58.1237C51.3438 58.3051 51.4231 58.5091 51.4231 58.7359V71.1835C51.4231 71.4102 51.3438 71.603 51.1851 71.7617C51.0263 71.9204 50.8336 71.9998 50.6069 71.9998ZM9.11468 62.0688H25.7796C26.0063 62.0688 26.199 62.1482 26.3577 62.3069C26.5165 62.4656 26.5958 62.6583 26.5958 62.8851V67.0343C26.5958 67.261 26.5165 67.4538 26.3577 67.6125C26.199 67.7712 26.0063 67.8505 25.7796 67.8505H9.11468C8.88795 67.8505 8.69522 67.7712 8.53651 67.6125C8.3778 67.4538 8.29844 67.261 8.29844 67.0343V62.8851C8.29844 62.6583 8.3778 62.4656 8.53651 62.3069C8.69522 62.1482 8.88795 62.0688 9.11468 62.0688ZM24.9633 63.7013H9.99894V66.2181H24.9633V63.7013ZM50.5389 62.0688H67.2038C67.4305 62.0688 67.6232 62.1482 67.7819 62.3069C67.9406 62.4656 68.02 62.6583 68.02 62.8851V67.0343C68.02 67.261 67.9406 67.4538 67.7819 67.6125C67.6232 67.7712 67.4305 67.8505 67.2038 67.8505H50.5389C50.3121 67.8505 50.1194 67.7712 49.9607 67.6125C49.802 67.4538 49.7226 67.261 49.7226 67.0343V62.8851C49.7226 62.6583 49.802 62.4656 49.9607 62.3069C50.1194 62.1482 50.3121 62.0688 50.5389 62.0688ZM66.3875 63.7013H51.4231V66.2181H66.3875V63.7013ZM38.1592 71.9998C37.9325 71.9998 37.7398 71.9204 37.5811 71.7617C37.4223 71.603 37.343 71.4102 37.343 71.1835V58.7359C37.343 58.5091 37.4223 58.3051 37.5811 58.1237C37.7398 57.9423 37.9325 57.8516 38.1592 57.8516C38.386 57.8516 38.5787 57.9423 38.7374 58.1237C38.8961 58.3051 38.9755 58.5091 38.9755 58.7359V71.1835C38.9755 71.4102 38.8961 71.603 38.7374 71.7617C38.5787 71.9204 38.386 71.9998 38.1592 71.9998Z" fill="#3763EB"/>
</g>
<defs>
<clipPath id="clip0_2001_176">
<rect width="68.02" height="74.8" fill="white" transform="matrix(1 0 0 -1 0 75.3898)"/>
</clipPath>
</defs>
</svg>
