<svg width="69" height="76" viewBox="0 0 69 76" fill="none" xmlns="http://www.w3.org/2000/svg">
<g clip-path="url(#clip0_2001_185)">
<path d="M67.2038 71.9998H54.7561C54.5294 71.9998 54.3366 71.9204 54.1779 71.7617C54.0192 71.603 53.9399 71.4102 53.9399 71.1835V56.4912C53.9399 56.2645 54.0306 56.0717 54.2119 55.913C54.3933 55.7543 54.586 55.6863 54.7901 55.709C54.9942 55.7316 55.1756 55.8223 55.3343 55.981C55.493 56.1398 55.5723 56.3325 55.5723 56.5592V70.3673H66.3875V56.6272C66.3875 55.1308 65.8547 53.8611 64.789 52.8181C63.7234 51.7751 62.4424 51.2537 60.9459 51.2537C60.7192 51.2537 60.5265 51.1743 60.3677 51.0156C60.209 50.8569 60.1297 50.6641 60.1297 50.4374C60.1297 50.2107 60.209 50.018 60.3677 49.8592C60.5265 49.7005 60.7192 49.6212 60.9459 49.6212C62.2156 49.6212 63.3946 49.9386 64.483 50.5735C65.5713 51.2083 66.4329 52.0586 67.0677 53.1242C67.7026 54.1899 68.02 55.3575 68.02 56.6272V71.1835C68.02 71.4102 67.9406 71.603 67.7819 71.7617C67.6232 71.9204 67.4305 71.9998 67.2038 71.9998ZM17.4131 38.806H13.2639C12.9918 38.806 12.7651 38.6926 12.5837 38.4659C9.81755 34.3393 7.72027 29.8954 6.29185 25.134C4.86343 20.3726 4.14922 15.5205 4.14922 10.5777V4.796C4.14922 4.56926 4.22857 4.37654 4.38729 4.21783C4.546 4.05911 4.73872 3.97975 4.96546 3.97975H13.2639C13.6267 3.97975 13.8761 4.16114 14.0121 4.52392L18.1613 14.863C18.3427 15.1804 18.3314 15.4751 18.1273 15.7472C17.9233 16.0193 17.6512 16.1213 17.3111 16.0533C16.971 15.9853 16.7556 15.7926 16.6649 15.4751L12.7197 5.61224H5.7817V10.5777C5.7817 15.2937 6.4619 19.9191 7.8223 24.4538C9.1827 28.9884 11.1553 33.2284 13.74 37.1735H16.5969V21.3929C16.5969 21.1661 16.6762 20.9734 16.8349 20.8147C16.9937 20.656 17.1864 20.5766 17.4131 20.5766C17.6399 20.5766 17.8326 20.656 17.9913 20.8147C18.15 20.9734 18.2294 21.1661 18.2294 21.3929V37.9898C18.2294 38.2165 18.15 38.4092 17.9913 38.5679C17.8326 38.7266 17.6399 38.806 17.4131 38.806ZM17.4131 66.2181H50.6069C50.8336 66.2181 51.0263 66.2974 51.185 66.4561C51.3438 66.6148 51.4231 66.8076 51.4231 67.0343V71.1835C51.4231 71.4102 51.3438 71.603 51.185 71.7617C51.0263 71.9204 50.8336 71.9998 50.6069 71.9998H17.4131C17.1864 71.9998 16.9937 71.9204 16.8349 71.7617C16.6762 71.603 16.5969 71.4102 16.5969 71.1835V67.0343C16.5969 66.8076 16.6762 66.6148 16.8349 66.4561C16.9937 66.2974 17.1864 66.2181 17.4131 66.2181ZM49.7906 67.8505H18.2294V70.3673H49.7906V67.8505ZM21.5623 62.0688H46.4577C46.6844 62.0688 46.8771 62.1482 47.0358 62.3069C47.1945 62.4656 47.2739 62.6583 47.2739 62.8851V67.0343C47.2739 67.261 47.1945 67.4538 47.0358 67.6125C46.8771 67.7712 46.6844 67.8505 46.4577 67.8505H21.5623C21.3356 67.8505 21.1429 67.7712 20.9842 67.6125C20.8255 67.4538 20.7461 67.261 20.7461 67.0343V62.8851C20.7461 62.6583 20.8255 62.4656 20.9842 62.3069C21.1429 62.1482 21.3356 62.0688 21.5623 62.0688ZM45.6414 63.7013H22.3786V66.2181H45.6414V63.7013ZM27.7522 43.2273C27.7522 43.2273 27.7295 43.2273 27.6841 43.2273C27.4574 43.2273 27.276 43.1366 27.14 42.9552C27.0039 42.7738 26.9359 42.5698 26.9359 42.343L28.6364 25.4741C28.6364 25.2473 28.7271 25.066 28.9085 24.9299C29.0899 24.7939 29.2939 24.7259 29.5207 24.7259C29.7474 24.7259 29.9288 24.8165 30.0648 24.9979C30.2009 25.1793 30.2689 25.3834 30.2689 25.6101L28.5684 42.4791C28.5684 42.7058 28.489 42.8872 28.3303 43.0232C28.1716 43.1593 27.9789 43.2273 27.7522 43.2273ZM42.3084 63.7013H38.1592C37.9325 63.7013 37.7398 63.6333 37.581 63.4973C37.4223 63.3612 37.343 63.1798 37.343 62.9531L34.01 33.0243L30.677 62.9531C30.677 63.1798 30.5977 63.3612 30.4389 63.4973C30.2802 63.6333 30.0875 63.7013 29.8608 63.7013H25.7116C25.4848 63.7013 25.2921 63.6106 25.1334 63.4292C24.9747 63.2478 24.8953 63.0438 24.8953 62.8171L26.5278 46.6963C26.5278 46.4696 26.6185 46.2882 26.7999 46.1522C26.9813 46.0161 27.1853 45.9481 27.4121 45.9481C27.6388 45.9481 27.8202 46.0388 27.9562 46.2202C28.0923 46.4016 28.1603 46.6056 28.1603 46.8324L26.5958 62.0688H29.1126L33.1938 25.4741C33.1938 25.2473 33.2731 25.0546 33.4318 24.8959C33.5905 24.7372 33.7833 24.6578 34.01 24.6578C34.2367 24.6578 34.4295 24.7372 34.5882 24.8959C34.7469 25.0546 34.8262 25.2473 34.8262 25.4741L38.9074 62.0688H41.4242L37.7511 25.6101C37.7511 25.3834 37.8191 25.1793 37.9552 24.9979C38.0912 24.8165 38.2726 24.7259 38.4993 24.7259C38.7261 24.7259 38.9301 24.7939 39.1115 24.9299C39.2929 25.066 39.3836 25.2473 39.3836 25.4741L43.1247 62.8171C43.1247 63.0438 43.0453 63.2478 42.8866 63.4292C42.7279 63.6106 42.5352 63.7013 42.3084 63.7013ZM58.9053 22.2091H13.2639C13.0372 22.2091 12.8444 22.1298 12.6857 21.971C12.527 21.8123 12.4477 21.6196 12.4477 21.3929V15.2031C12.4477 14.9763 12.527 14.7723 12.6857 14.5909C12.8444 14.4095 13.0372 14.3188 13.2639 14.3188H40.1318C40.3585 14.3188 40.5626 14.3982 40.744 14.5569C40.9254 14.7156 41.0161 14.9196 41.0161 15.169C41.0161 15.4185 40.9254 15.6225 40.744 15.7812C40.5626 15.9399 40.3585 16.0193 40.1318 16.0193H14.0801V20.5766H58.0891V16.0193H44.4851C44.2583 16.0193 44.0543 15.9399 43.8729 15.7812C43.6915 15.6225 43.6008 15.4185 43.6008 15.169C43.6008 14.9196 43.6915 14.7156 43.8729 14.5569C44.0543 14.3982 44.2583 14.3188 44.4851 14.3188H58.9053C59.132 14.3188 59.3248 14.4095 59.4835 14.5909C59.6422 14.7723 59.7216 14.9763 59.7216 15.2031V21.3929C59.7216 21.6196 59.6422 21.8123 59.4835 21.971C59.3248 22.1298 59.132 22.2091 58.9053 22.2091ZM7.07408 59.5521C6.84734 59.5521 6.65462 59.4727 6.49591 59.314C6.33719 59.1553 6.25784 58.9626 6.25784 58.7359V24.7259C6.25784 24.4991 6.33719 24.3064 6.49591 24.1477C6.65462 23.989 6.84734 23.9096 7.07408 23.9096C7.30081 23.9096 7.49353 23.989 7.65225 24.1477C7.81096 24.3064 7.89032 24.4991 7.89032 24.7259V58.7359C7.89032 58.9626 7.81096 59.1553 7.65225 59.314C7.49353 59.4727 7.30081 59.5521 7.07408 59.5521ZM4.96546 57.9196H9.11468C9.34141 57.9196 9.53413 57.999 9.69285 58.1577C9.85156 58.3164 9.93092 58.5091 9.93092 58.7359V62.8851C9.93092 63.1118 9.85156 63.3045 9.69285 63.4632C9.53413 63.622 9.34141 63.7013 9.11468 63.7013H4.96546C4.73872 63.7013 4.546 63.622 4.38729 63.4632C4.22857 63.3045 4.14922 63.1118 4.14922 62.8851V58.7359C4.14922 58.5091 4.22857 58.3164 4.38729 58.1577C4.546 57.999 4.73872 57.9196 4.96546 57.9196ZM8.29844 59.5521H5.7817V62.0688H8.29844V59.5521ZM13.2639 71.9998H0.816236C0.49881 71.9998 0.249403 71.8637 0.0680163 71.5916C-0.11337 71.3196 -0.11337 71.0475 0.0680163 70.7754L4.21724 62.545C4.35328 62.2275 4.60268 62.0688 4.96546 62.0688H9.11468C9.47745 62.0688 9.72686 62.2275 9.8629 62.545L14.0121 70.7754C14.1935 71.0475 14.1935 71.3196 14.0121 71.5916C13.8307 71.8637 13.5813 71.9998 13.2639 71.9998ZM2.17664 70.3673H11.9715L8.63854 63.7013H5.50962L2.17664 70.3673ZM36.1186 47.1725H31.6973C31.4706 47.1725 31.2779 47.0931 31.1191 46.9344C30.9604 46.7757 30.8811 46.5829 30.8811 46.3562C30.8811 46.1295 30.9604 45.9368 31.1191 45.778C31.2779 45.6193 31.4706 45.54 31.6973 45.54H36.1186C36.3453 45.54 36.5381 45.6193 36.6968 45.778C36.8555 45.9368 36.9349 46.1295 36.9349 46.3562C36.9349 46.5829 36.8555 46.7757 36.6968 46.9344C36.5381 47.0931 36.3453 47.1725 36.1186 47.1725ZM37.275 55.4709H30.8131C30.541 55.4709 30.3256 55.3915 30.1669 55.2328C30.0082 55.0741 29.9288 54.8701 29.9288 54.6206C29.9288 54.3712 30.0195 54.1672 30.2009 54.0085C30.3823 53.8498 30.5863 53.7704 30.8131 53.7704H37.275C37.5017 53.7704 37.6944 53.8498 37.8531 54.0085C38.0118 54.1672 38.0912 54.3599 38.0912 54.5866C38.0912 54.8134 38.0118 55.0174 37.8531 55.1988C37.6944 55.3802 37.5017 55.4709 37.275 55.4709ZM52.6475 20.5766H58.9053C59.132 20.5766 59.3248 20.6673 59.4835 20.8487C59.6422 21.0301 59.7216 21.2342 59.7216 21.4609V26.6304C59.7216 27.6734 59.3361 28.5803 58.5652 29.3512C57.7943 30.1221 56.8874 30.5076 55.8444 30.5076H55.7764C54.6881 30.5076 53.7585 30.1334 52.9876 29.3852C52.2167 28.637 51.8312 27.7187 51.8312 26.6304V21.4609C51.8312 21.2342 51.9106 21.0301 52.0693 20.8487C52.228 20.6673 52.4207 20.5766 52.6475 20.5766ZM58.0891 22.2771H53.5317V26.6304C53.5317 27.2653 53.7471 27.7981 54.1779 28.2289C54.6087 28.6597 55.1415 28.8751 55.7764 28.8751H55.8444C56.4793 28.8751 57.0121 28.6597 57.4429 28.2289C57.8737 27.7981 58.0891 27.2653 58.0891 26.6304V22.2771ZM50.0627 41.0507C49.972 41.0507 49.8813 41.028 49.7906 40.9826C49.5639 40.8919 49.4052 40.7446 49.3145 40.5405C49.2238 40.3364 49.2238 40.121 49.3145 39.8943L55.0282 25.27C55.1189 25.0433 55.2662 24.8846 55.4703 24.7939C55.6744 24.7032 55.8898 24.7032 56.1165 24.7939C56.3432 24.8846 56.5019 25.0319 56.5926 25.236C56.6833 25.4401 56.6833 25.6555 56.5926 25.8822L50.8109 40.5065C50.6749 40.8693 50.4255 41.0507 50.0627 41.0507ZM58.7693 59.5521C57.3182 59.5521 56.0938 59.0306 55.0962 57.9876L45.0973 48.0567C44.4624 47.4219 44.0203 46.651 43.7709 45.744C43.5215 44.8371 43.5215 43.9302 43.7709 43.0232C44.0203 42.1163 44.4624 41.3454 45.0973 40.7106C45.7321 40.0757 46.503 39.6336 47.4099 39.3842C48.3169 39.1348 49.2238 39.1348 50.1307 39.3842C51.0377 39.6336 51.8086 40.0757 52.4434 40.7106L55.4363 43.7715C55.6177 43.9528 55.7084 44.1456 55.7084 44.3496C55.7084 44.5537 55.6177 44.7464 55.4363 44.9278C55.2549 45.1092 55.0622 45.1999 54.8581 45.1999C54.6541 45.1999 54.4613 45.1092 54.28 44.9278L51.2191 41.8669C50.4935 41.3227 49.6886 41.0733 48.8043 41.1187C47.9201 41.164 47.1605 41.5041 46.5257 42.139C45.8908 42.7738 45.5507 43.5334 45.5054 44.4176C45.46 45.3019 45.7094 46.1068 46.2536 46.8324L56.2525 56.8313C56.6607 57.3755 57.1935 57.7609 57.851 57.9876C58.5085 58.2144 59.1661 58.2484 59.8236 58.0897C60.4811 57.931 61.0479 57.6135 61.5241 57.1374C62.0002 56.6612 62.3177 56.0944 62.4764 55.4369C62.6351 54.7794 62.6011 54.1218 62.3743 53.4643C62.1476 52.8068 61.7622 52.274 61.218 51.8658L57.4089 47.9887C57.2275 47.8073 57.1368 47.6146 57.1368 47.4105C57.1368 47.2065 57.2275 47.0137 57.4089 46.8324C57.5903 46.651 57.783 46.5603 57.987 46.5603C58.1911 46.5603 58.3838 46.651 58.5652 46.8324L62.3743 50.7095C63.0999 51.435 63.576 52.308 63.8028 53.3283C64.0295 54.3486 63.9388 55.3462 63.5307 56.3211C63.1226 57.2961 62.4877 58.0783 61.6261 58.6678C60.7645 59.2573 59.8123 59.5521 58.7693 59.5521ZM11.2233 9.76146H9.11468C8.88794 9.76146 8.69522 9.6821 8.53651 9.52338C8.37779 9.36467 8.29844 9.17195 8.29844 8.94521C8.29844 8.71848 8.37779 8.52576 8.53651 8.36705C8.69522 8.20833 8.88794 8.12897 9.11468 8.12897H11.2233C11.45 8.12897 11.6428 8.20833 11.8015 8.36705C11.9602 8.52576 12.0395 8.71848 12.0395 8.94521C12.0395 9.17195 11.9602 9.36467 11.8015 9.52338C11.6428 9.6821 11.45 9.76146 11.2233 9.76146ZM67.2038 67.8505H54.7561C54.5294 67.8505 54.3366 67.7712 54.1779 67.6125C54.0192 67.4538 53.9399 67.261 53.9399 67.0343C53.9399 66.8076 54.0192 66.6148 54.1779 66.4561C54.3366 66.2974 54.5294 66.2181 54.7561 66.2181H67.2038C67.4305 66.2181 67.6232 66.2974 67.7819 66.4561C67.9406 66.6148 68.02 66.8076 68.02 67.0343C68.02 67.261 67.9406 67.4538 67.7819 67.6125C67.6232 67.7712 67.4305 67.8505 67.2038 67.8505ZM55.9124 52.342C55.6857 52.342 55.5043 52.274 55.3683 52.1379L50.947 47.7166C50.7656 47.5352 50.6749 47.3425 50.6749 47.1384C50.6749 46.9344 50.7656 46.7417 50.947 46.5603C51.1284 46.3789 51.3211 46.2882 51.5251 46.2882C51.7292 46.2882 51.9219 46.3789 52.1033 46.5603L56.5246 50.9816C56.7514 51.2537 56.7967 51.5484 56.6607 51.8658C56.5246 52.1833 56.2752 52.342 55.9124 52.342ZM25.7116 20.5766H42.3084C42.5352 20.5766 42.7279 20.656 42.8866 20.8147C43.0453 20.9734 43.1247 21.1661 43.1247 21.3929V25.5421C43.1247 25.7688 43.0453 25.9616 42.8866 26.1203C42.7279 26.279 42.5352 26.3583 42.3084 26.3583H25.7116C25.4848 26.3583 25.2921 26.279 25.1334 26.1203C24.9747 25.9616 24.8953 25.7688 24.8953 25.5421V21.3929C24.8953 21.1661 24.9747 20.9734 25.1334 20.8147C25.2921 20.656 25.4848 20.5766 25.7116 20.5766ZM41.4922 22.2091H26.5278V24.7259H41.4922V22.2091Z" fill="#3763EB"/>
</g>
<defs>
<clipPath id="clip0_2001_185">
<rect width="68.02" height="74.8" fill="white" transform="matrix(1 0 0 -1 0 75.3898)"/>
</clipPath>
</defs>
</svg>
