<svg width="75" height="84" viewBox="0 0 75 84" fill="none" xmlns="http://www.w3.org/2000/svg">
<g clip-path="url(#clip0_2001_472)">
<path d="M73.9123 79.3799H60.222C59.9727 79.3799 59.7607 79.2926 59.5861 79.118C59.4116 78.9435 59.3243 78.7315 59.3243 78.4822V62.3232C59.3243 62.0738 59.4241 61.8619 59.6236 61.6873C59.823 61.5128 60.035 61.438 60.2594 61.4629C60.4839 61.4878 60.6834 61.5876 60.8579 61.7621C61.0325 61.9367 61.1198 62.1486 61.1198 62.398V77.5844H73.0145V62.4728C73.0145 60.827 72.4285 59.4305 71.2565 58.2835C70.0845 57.1364 68.6756 56.5628 67.0297 56.5628C66.7804 56.5628 66.5684 56.4756 66.3939 56.301C66.2193 56.1264 66.132 55.9145 66.132 55.6651C66.132 55.4157 66.2193 55.2038 66.3939 55.0292C66.5684 54.8547 66.7804 54.7674 67.0297 54.7674C68.4262 54.7674 69.7229 55.1165 70.9199 55.8147C72.1168 56.513 73.0644 57.4481 73.7626 58.6201C74.4609 59.7921 74.81 61.0764 74.81 62.4728V78.4822C74.81 78.7315 74.7227 78.9435 74.5481 79.118C74.3736 79.2926 74.1616 79.3799 73.9123 79.3799ZM19.1513 42.8726H14.5879C14.2887 42.8726 14.0393 42.7479 13.8398 42.4986C10.7976 37.9601 8.49092 33.0725 6.91991 27.8358C5.3489 22.5991 4.56339 17.2626 4.56339 11.8265V5.46761C4.56339 5.21824 4.65067 5.00628 4.82523 4.83172C4.99978 4.65717 5.21174 4.56989 5.46111 4.56989H14.5879C14.9869 4.56989 15.2612 4.76938 15.4108 5.16837L19.9743 16.5395C20.1737 16.8886 20.1613 17.2128 19.9368 17.512C19.7124 17.8113 19.4132 17.9235 19.0391 17.8487C18.6651 17.7738 18.4282 17.5619 18.3284 17.2128L13.9895 6.36533H6.35883V11.8265C6.35883 17.0133 7.10693 22.1004 8.60313 27.0877C10.0993 32.075 12.2688 36.7382 15.1116 41.0772H18.2536V23.7212C18.2536 23.4719 18.3409 23.2599 18.5155 23.0854C18.69 22.9108 18.902 22.8235 19.1513 22.8235C19.4007 22.8235 19.6127 22.9108 19.7872 23.0854C19.9618 23.2599 20.0491 23.4719 20.0491 23.7212V41.9749C20.0491 42.2243 19.9618 42.4362 19.7872 42.6108C19.6127 42.7853 19.4007 42.8726 19.1513 42.8726ZM19.1513 73.021H55.6586C55.908 73.021 56.1199 73.1083 56.2945 73.2829C56.4691 73.4574 56.5563 73.6694 56.5563 73.9188V78.4822C56.5563 78.7315 56.4691 78.9435 56.2945 79.118C56.1199 79.2926 55.908 79.3799 55.6586 79.3799H19.1513C18.902 79.3799 18.69 79.2926 18.5155 79.118C18.3409 78.9435 18.2536 78.7315 18.2536 78.4822V73.9188C18.2536 73.6694 18.3409 73.4574 18.5155 73.2829C18.69 73.1083 18.902 73.021 19.1513 73.021ZM54.7609 74.8165H20.0491V77.5844H54.7609V74.8165ZM23.7148 68.4576H51.0952C51.3446 68.4576 51.5565 68.5449 51.7311 68.7195C51.9057 68.894 51.9929 69.106 51.9929 69.3553V73.9188C51.9929 74.1681 51.9057 74.3801 51.7311 74.5546C51.5565 74.7292 51.3446 74.8165 51.0952 74.8165H23.7148C23.4654 74.8165 23.2534 74.7292 23.0789 74.5546C22.9043 74.3801 22.817 74.1681 22.817 73.9188V69.3553C22.817 69.106 22.9043 68.894 23.0789 68.7195C23.2534 68.5449 23.4654 68.4576 23.7148 68.4576ZM50.1975 70.2531H24.6125V73.021H50.1975V70.2531ZM30.5225 47.7353C30.5225 47.7353 30.4975 47.7353 30.4477 47.7353C30.1983 47.7353 29.9988 47.6355 29.8492 47.436C29.6996 47.2365 29.6247 47.0121 29.6247 46.7627L31.495 28.2098C31.495 27.9605 31.5947 27.761 31.7942 27.6114C31.9937 27.4617 32.2182 27.3869 32.4675 27.3869C32.7169 27.3869 32.9164 27.4867 33.066 27.6862C33.2156 27.8857 33.2904 28.1101 33.2904 28.3595L31.4202 46.9123C31.4202 47.1617 31.3329 47.3612 31.1583 47.5108C30.9838 47.6604 30.7718 47.7353 30.5225 47.7353ZM46.5318 70.2531H41.9684C41.719 70.2531 41.5071 70.1783 41.3325 70.0286C41.1579 69.879 41.0707 69.6795 41.0707 69.4302L37.405 36.5138L33.7393 69.4302C33.7393 69.6795 33.652 69.879 33.4775 70.0286C33.3029 70.1783 33.0909 70.2531 32.8416 70.2531H28.2782C28.0288 70.2531 27.8168 70.1533 27.6423 69.9538C27.4677 69.7543 27.3804 69.5299 27.3804 69.2805L29.1759 51.5506C29.1759 51.3012 29.2756 51.1017 29.4751 50.9521C29.6746 50.8025 29.899 50.7277 30.1484 50.7277C30.3978 50.7277 30.5973 50.8274 30.7469 51.0269C30.8965 51.2264 30.9713 51.4508 30.9713 51.7002L29.2507 68.4576H32.0187L36.5073 28.2098C36.5073 27.9605 36.5945 27.7485 36.7691 27.574C36.9437 27.3994 37.1556 27.3121 37.405 27.3121C37.6543 27.3121 37.8663 27.3994 38.0409 27.574C38.2154 27.7485 38.3027 27.9605 38.3027 28.2098L42.7913 68.4576H45.5593L41.5195 28.3595C41.5195 28.1101 41.5943 27.8857 41.744 27.6862C41.8936 27.4867 42.0931 27.3869 42.3424 27.3869C42.5918 27.3869 42.8162 27.4617 43.0157 27.6114C43.2152 27.761 43.315 27.9605 43.315 28.2098L47.4295 69.2805C47.4295 69.5299 47.3422 69.7543 47.1677 69.9538C46.9931 70.1533 46.7812 70.2531 46.5318 70.2531ZM64.7854 24.619H14.5879C14.3386 24.619 14.1266 24.5317 13.952 24.3571C13.7775 24.1826 13.6902 23.9706 13.6902 23.7212V16.9135C13.6902 16.6642 13.7775 16.4397 13.952 16.2402C14.1266 16.0408 14.3386 15.941 14.5879 15.941H44.1379C44.3872 15.941 44.6117 16.0283 44.8112 16.2028C45.0107 16.3774 45.1104 16.6018 45.1104 16.8761C45.1104 17.1504 45.0107 17.3749 44.8112 17.5494C44.6117 17.724 44.3872 17.8113 44.1379 17.8113H15.4857V22.8235H63.8877V17.8113H48.9257C48.6764 17.8113 48.4519 17.724 48.2524 17.5494C48.0529 17.3749 47.9532 17.1504 47.9532 16.8761C47.9532 16.6018 48.0529 16.3774 48.2524 16.2028C48.4519 16.0283 48.6764 15.941 48.9257 15.941H64.7854C65.0348 15.941 65.2468 16.0408 65.4213 16.2402C65.5959 16.4397 65.6832 16.6642 65.6832 16.9135V23.7212C65.6832 23.9706 65.5959 24.1826 65.4213 24.3571C65.2468 24.5317 65.0348 24.619 64.7854 24.619ZM7.78022 65.6897C7.53085 65.6897 7.31889 65.6024 7.14434 65.4278C6.96978 65.2533 6.8825 65.0413 6.8825 64.7919V27.3869C6.8825 27.1376 6.96978 26.9256 7.14434 26.751C7.31889 26.5765 7.53085 26.4892 7.78022 26.4892C8.02959 26.4892 8.24155 26.5765 8.41611 26.751C8.59066 26.9256 8.67794 27.1376 8.67794 27.3869V64.7919C8.67794 65.0413 8.59066 65.2533 8.41611 65.4278C8.24155 65.6024 8.02959 65.6897 7.78022 65.6897ZM5.46111 63.8942H10.0245C10.2739 63.8942 10.4858 63.9815 10.6604 64.156C10.835 64.3306 10.9222 64.5426 10.9222 64.7919V69.3553C10.9222 69.6047 10.835 69.8167 10.6604 69.9912C10.4858 70.1658 10.2739 70.2531 10.0245 70.2531H5.46111C5.21174 70.2531 4.99978 70.1658 4.82523 69.9912C4.65067 69.8167 4.56339 69.6047 4.56339 69.3553V64.7919C4.56339 64.5426 4.65067 64.3306 4.82523 64.156C4.99978 63.9815 5.21174 63.8942 5.46111 63.8942ZM9.1268 65.6897H6.35883V68.4576H9.1268V65.6897ZM14.5879 79.3799H0.897701C0.548588 79.3799 0.274284 79.2303 0.0747909 78.931C-0.124702 78.6318 -0.124702 78.3325 0.0747909 78.0333L4.6382 68.9813C4.78782 68.6322 5.06212 68.4576 5.46111 68.4576H10.0245C10.4235 68.4576 10.6978 68.6322 10.8474 68.9813L15.4108 78.0333C15.6103 78.3325 15.6103 78.6318 15.4108 78.931C15.2113 79.2303 14.937 79.3799 14.5879 79.3799ZM2.3939 77.5844H13.1665L9.50085 70.2531H6.05959L2.3939 77.5844ZM39.7241 52.0742H34.8614C34.6121 52.0742 34.4001 51.987 34.2256 51.8124C34.051 51.6378 33.9637 51.4259 33.9637 51.1765C33.9637 50.9271 34.051 50.7152 34.2256 50.5406C34.4001 50.3661 34.6121 50.2788 34.8614 50.2788H39.7241C39.9735 50.2788 40.1854 50.3661 40.36 50.5406C40.5345 50.7152 40.6218 50.9271 40.6218 51.1765C40.6218 51.4259 40.5345 51.6378 40.36 51.8124C40.1854 51.987 39.9735 52.0742 39.7241 52.0742ZM40.9959 61.2011H33.8889C33.5897 61.2011 33.3528 61.1138 33.1782 60.9392C33.0037 60.7647 32.9164 60.5402 32.9164 60.2659C32.9164 59.9916 33.0161 59.7672 33.2156 59.5926C33.4151 59.4181 33.6395 59.3308 33.8889 59.3308H40.9959C41.2452 59.3308 41.4572 59.4181 41.6317 59.5926C41.8063 59.7672 41.8936 59.9792 41.8936 60.2285C41.8936 60.4779 41.8063 60.7023 41.6317 60.9018C41.4572 61.1013 41.2452 61.2011 40.9959 61.2011ZM57.9029 22.8235H64.7854C65.0348 22.8235 65.2468 22.9233 65.4213 23.1228C65.5959 23.3223 65.6832 23.5467 65.6832 23.7961V29.4816C65.6832 30.6287 65.2592 31.6262 64.4114 32.474C63.5635 33.3219 62.5661 33.7458 61.419 33.7458H61.3442C60.1472 33.7458 59.1248 33.3343 58.277 32.5114C57.4291 31.6885 57.0052 30.6786 57.0052 29.4816V23.7961C57.0052 23.5467 57.0925 23.3223 57.267 23.1228C57.4416 22.9233 57.6536 22.8235 57.9029 22.8235ZM63.8877 24.6938H58.8755V29.4816C58.8755 30.1798 59.1123 30.7659 59.5861 31.2397C60.0599 31.7134 60.646 31.9503 61.3442 31.9503H61.419C62.1172 31.9503 62.7032 31.7134 63.177 31.2397C63.6508 30.7659 63.8877 30.1798 63.8877 29.4816V24.6938ZM55.0601 45.3413C54.9604 45.3413 54.8606 45.3164 54.7609 45.2665C54.5115 45.1668 54.337 45.0047 54.2372 44.7803C54.1375 44.5558 54.1375 44.3189 54.2372 44.0696L60.5213 27.9854C60.621 27.736 60.7831 27.5615 61.0075 27.4617C61.232 27.362 61.4689 27.362 61.7182 27.4617C61.9676 27.5615 62.1422 27.7236 62.2419 27.948C62.3416 28.1724 62.3416 28.4093 62.2419 28.6587L55.883 44.7429C55.7334 45.1418 55.4591 45.3413 55.0601 45.3413ZM64.6358 65.6897C63.0399 65.6897 61.6933 65.1161 60.5961 63.969L49.599 53.0468C48.9008 52.3485 48.4145 51.5007 48.1402 50.5032C47.8659 49.5058 47.8659 48.5083 48.1402 47.5108C48.4145 46.5134 48.9008 45.6655 49.599 44.9673C50.2972 44.2691 51.1451 43.7828 52.1426 43.5085C53.14 43.2342 54.1375 43.2342 55.1349 43.5085C56.1324 43.7828 56.9803 44.2691 57.6785 44.9673L60.9701 48.3337C61.1696 48.5332 61.2694 48.7452 61.2694 48.9696C61.2694 49.194 61.1696 49.406 60.9701 49.6055C60.7706 49.805 60.5587 49.9047 60.3342 49.9047C60.1098 49.9047 59.8979 49.805 59.6984 49.6055L56.3319 46.2391C55.5339 45.6406 54.6487 45.3663 53.6762 45.4161C52.7036 45.466 51.8682 45.8401 51.17 46.5383C50.4718 47.2365 50.0977 48.0719 50.0479 49.0444C49.998 50.017 50.2723 50.9022 50.8708 51.7002L61.8679 62.6973C62.3167 63.2957 62.9027 63.7197 63.6259 63.969C64.349 64.2184 65.0722 64.2558 65.7954 64.0812C66.5185 63.9067 67.142 63.5576 67.6656 63.0339C68.1893 62.5102 68.5384 61.8868 68.713 61.1636C68.8875 60.4405 68.8501 59.7173 68.6007 58.9942C68.3514 58.271 67.9275 57.685 67.329 57.2361L63.1396 52.972C62.9401 52.7725 62.8404 52.5605 62.8404 52.3361C62.8404 52.1116 62.9401 51.8997 63.1396 51.7002C63.3391 51.5007 63.5511 51.4009 63.7755 51.4009C63.9999 51.4009 64.2119 51.5007 64.4114 51.7002L68.6007 55.9644C69.3987 56.7623 69.9224 57.7224 70.1718 58.8445C70.4211 59.9667 70.3214 61.0639 69.8725 62.1362C69.4237 63.2085 68.7254 64.0688 67.7778 64.7171C66.8302 65.3655 65.7829 65.6897 64.6358 65.6897ZM12.3436 10.9287H10.0245C9.77515 10.9287 9.56319 10.8415 9.38864 10.6669C9.21408 10.4923 9.1268 10.2804 9.1268 10.031C9.1268 9.78165 9.21408 9.56969 9.38864 9.39513C9.56319 9.22057 9.77515 9.13329 10.0245 9.13329H12.3436C12.593 9.13329 12.805 9.22057 12.9795 9.39513C13.1541 9.56969 13.2414 9.78165 13.2414 10.031C13.2414 10.2804 13.1541 10.4923 12.9795 10.6669C12.805 10.8415 12.593 10.9287 12.3436 10.9287ZM73.9123 74.8165H60.222C59.9727 74.8165 59.7607 74.7292 59.5861 74.5546C59.4116 74.3801 59.3243 74.1681 59.3243 73.9188C59.3243 73.6694 59.4116 73.4574 59.5861 73.2829C59.7607 73.1083 59.9727 73.021 60.222 73.021H73.9123C74.1616 73.021 74.3736 73.1083 74.5481 73.2829C74.7227 73.4574 74.81 73.6694 74.81 73.9188C74.81 74.1681 74.7227 74.3801 74.5481 74.5546C74.3736 74.7292 74.1616 74.8165 73.9123 74.8165ZM61.4938 57.7598C61.2444 57.7598 61.0449 57.685 60.8953 57.5354L56.0327 52.6727C55.8332 52.4732 55.7334 52.2613 55.7334 52.0368C55.7334 51.8124 55.8332 51.6004 56.0327 51.4009C56.2322 51.2015 56.4441 51.1017 56.6686 51.1017C56.893 51.1017 57.1049 51.2015 57.3044 51.4009L62.1671 56.2636C62.4165 56.5628 62.4663 56.887 62.3167 57.2361C62.1671 57.5852 61.8928 57.7598 61.4938 57.7598ZM28.2782 22.8235H46.5318C46.7812 22.8235 46.9931 22.9108 47.1677 23.0854C47.3422 23.2599 47.4295 23.4719 47.4295 23.7212V28.2847C47.4295 28.534 47.3422 28.746 47.1677 28.9205C46.9931 29.0951 46.7812 29.1824 46.5318 29.1824H28.2782C28.0288 29.1824 27.8168 29.0951 27.6423 28.9205C27.4677 28.746 27.3804 28.534 27.3804 28.2847V23.7212C27.3804 23.4719 27.4677 23.2599 27.6423 23.0854C27.8168 22.9108 28.0288 22.8235 28.2782 22.8235ZM45.6341 24.619H29.1759V27.3869H45.6341V24.619Z" fill="white"/>
</g>
<defs>
<clipPath id="clip0_2001_472">
<rect width="74.81" height="82.27" fill="white" transform="matrix(1 0 0 -1 0 83.1099)"/>
</clipPath>
</defs>
</svg>
