<svg width="54" height="76" viewBox="0 0 54 76" fill="none" xmlns="http://www.w3.org/2000/svg">
<g clip-path="url(#clip0_2001_194)">
<path d="M21.9705 26.9705C21.7438 26.9705 21.5397 26.8912 21.3583 26.7324C21.1769 26.5737 21.0863 26.381 21.0863 26.1543L20.6781 18.1279L21.2223 8.74111C21.2676 7.60744 21.5397 6.54179 22.0385 5.54416C22.2199 5.09069 22.5033 4.72792 22.8888 4.45584C23.2742 4.18376 23.7164 4.03638 24.2152 4.01371C24.714 3.99104 25.1675 4.11574 25.5756 4.38782C25.9837 4.6599 26.2785 5.02267 26.4599 5.47614C27.0494 6.47377 27.3668 7.5621 27.4121 8.74111L27.8883 18.1959L27.4802 26.1543C27.4802 26.4717 27.3328 26.7098 27.038 26.8685C26.7433 27.0272 26.4599 27.0159 26.1878 26.8345C25.9157 26.6531 25.7796 26.4037 25.7796 26.0863L26.1878 18.1959L25.7116 8.87715C25.6663 7.87952 25.4849 7.06328 25.1675 6.42842C24.85 5.88426 24.5439 5.61218 24.2492 5.61218C23.9544 5.61218 23.6597 5.91827 23.3649 6.53046C23.0702 7.14264 22.9001 7.92487 22.8548 8.87715L22.3786 18.1959L22.7868 26.0863C22.7868 26.313 22.7074 26.5171 22.5487 26.6984C22.39 26.8798 22.1973 26.9705 21.9705 26.9705ZM15.0325 41.0507C14.715 41.0507 14.4883 40.9373 14.3523 40.7106C14.2162 40.4839 14.1822 40.2571 14.2502 40.0304C14.3182 39.8037 14.443 39.6223 14.6243 39.4862L20.066 35.9492C20.2473 35.8131 20.4514 35.7791 20.6781 35.8472C20.9049 35.9152 21.0863 36.0399 21.2223 36.2213C21.3583 36.4026 21.4037 36.6067 21.3583 36.8334C21.313 37.0602 21.1996 37.2416 21.0182 37.3776L15.5086 40.9147C15.3726 41.0054 15.2138 41.0507 15.0325 41.0507ZM2.85685 46.8324H2.78883C2.33536 46.8778 1.89323 46.7984 1.46243 46.5943C1.03164 46.3903 0.691539 46.0729 0.442131 45.6421C0.192724 45.2113 0.0906936 44.7578 0.13604 44.2817C0.181387 43.8055 0.340101 43.3634 0.612182 42.9553C1.20169 41.9576 1.99526 41.1641 2.99289 40.5746L10.8832 35.473H10.9512L18.0253 31.868C18.2067 31.8226 18.3881 31.834 18.5695 31.902C18.7509 31.97 18.8983 32.0947 19.0116 32.2761C19.125 32.4575 19.159 32.6389 19.1137 32.8203C19.0683 33.0016 18.955 33.1604 18.7736 33.2964L11.7675 36.9015L3.87715 42.003C3.10625 42.5018 2.53942 43.0346 2.17665 43.6015C1.81387 44.1683 1.7005 44.5764 1.83654 44.8258C1.97259 45.0752 2.35803 45.1999 2.99289 45.1999C3.71844 45.1999 4.51201 44.9732 5.37359 44.5197L11.0873 41.5949C11.3594 41.4588 11.6315 41.4815 11.9035 41.6629C12.1756 41.8443 12.3003 42.0937 12.2776 42.4111C12.255 42.7285 12.1076 42.9553 11.8355 43.0913L6.12182 45.9481C5.12419 46.4923 4.03586 46.7871 2.85685 46.8324ZM45.6415 46.8324C44.4625 46.7871 43.3742 46.4923 42.3766 45.9481L34.0101 41.6629H33.9421L27.2761 37.3096C27.0947 37.1735 26.9813 36.9922 26.936 36.7654C26.8906 36.5387 26.936 36.3346 27.072 36.1532C27.2081 35.9719 27.3895 35.8585 27.6162 35.8131C27.8429 35.7678 28.047 35.8131 28.2284 35.9492L34.8263 40.2345L43.1248 44.4517C43.941 44.9052 44.7006 45.1546 45.4035 45.1999C46.1063 45.2453 46.5258 45.1319 46.6618 44.8598C46.7979 44.5877 46.7072 44.2023 46.3898 43.7035C45.9816 43.0686 45.3695 42.5018 44.5532 42.003L39.0436 38.3979C38.8622 38.2619 38.7488 38.0805 38.7035 37.8537C38.6581 37.627 38.7035 37.423 38.8395 37.2416C38.9756 37.0602 39.157 36.9468 39.3837 36.9015C39.6104 36.8561 39.8145 36.9015 39.9959 37.0375L45.5055 40.5746C46.5031 41.2094 47.2967 42.0257 47.8862 43.0233C48.2036 43.3861 48.3737 43.8169 48.3964 44.3157C48.419 44.8145 48.3057 45.2679 48.0563 45.6761C47.8069 46.0842 47.4667 46.4016 47.036 46.6284C46.6052 46.8551 46.1404 46.9231 45.6415 46.8324ZM36.0507 36.3573C35.9147 36.3573 35.7786 36.312 35.6426 36.2213L29.9969 33.3644C29.7702 33.2737 29.6228 33.1263 29.5548 32.9223C29.4867 32.7182 29.4981 32.5028 29.5888 32.2761C29.6795 32.0494 29.8382 31.8906 30.0649 31.8C30.2917 31.7093 30.5184 31.7319 30.7451 31.868L36.3908 34.7928C36.5722 34.8835 36.7082 35.0196 36.7989 35.201C36.8896 35.3823 36.9123 35.5637 36.8669 35.7451C36.8216 35.9265 36.7082 36.0852 36.5268 36.2213C36.3454 36.3573 36.1641 36.4026 35.9827 36.3573H36.0507ZM24.2832 24.6578C25.5529 24.6578 26.7319 24.9753 27.8203 25.6101C28.9086 26.245 29.7702 27.0952 30.405 28.1609C31.0399 29.2265 31.3573 30.4055 31.3573 31.6979C31.3573 32.9903 31.0399 34.1807 30.405 35.269C29.7702 36.3573 28.9199 37.2189 27.8543 37.8537C26.7886 38.4886 25.6096 38.806 24.3172 38.806C23.0248 38.806 21.8458 38.4999 20.7802 37.8878C19.7145 37.2756 18.8529 36.4253 18.1954 35.337C17.5379 34.2487 17.2091 33.0697 17.2091 31.8C17.2091 30.8477 17.3792 29.9407 17.7193 29.0791C18.0594 28.2176 18.5695 27.4467 19.2497 26.7665C19.9299 26.0863 20.7008 25.5648 21.5624 25.202C22.424 24.8392 23.3309 24.6578 24.2832 24.6578ZM24.2832 37.1735C25.3715 37.1735 26.3805 36.8675 27.3101 36.2553C28.2397 35.6431 28.9086 34.8269 29.3167 33.8065C29.7248 32.7862 29.8268 31.7319 29.6228 30.6436C29.4187 29.5553 28.9199 28.6257 28.1263 27.8548C27.3328 27.0839 26.3918 26.5964 25.3035 26.3923C24.2152 26.1883 23.1609 26.3017 22.1406 26.7324C21.1203 27.1632 20.3154 27.8434 19.7259 28.7731C19.1363 29.7027 18.8416 30.7116 18.8416 31.8C18.8416 33.2964 19.3744 34.5661 20.4401 35.6091C21.5057 36.6521 22.7868 37.1735 24.2832 37.1735ZM47.4101 36.0852C47.1833 36.0852 46.9793 36.0059 46.7979 35.8472C46.6165 35.6884 46.5258 35.4957 46.5258 35.269V35.1329C47.07 31.5959 46.8206 28.1609 45.7776 24.8279C44.7346 21.4949 43.0228 18.536 40.6421 15.9512C38.2614 13.3665 35.4158 11.4392 32.1055 10.1695C31.8788 10.0788 31.7201 9.93147 31.6294 9.7274C31.5387 9.52334 31.5387 9.30795 31.6294 9.08121C31.7201 8.85448 31.8675 8.69576 32.0715 8.60507C32.2756 8.51438 32.491 8.51438 32.7177 8.60507C36.3001 9.96547 39.3723 12.0288 41.9344 14.7949C44.4965 17.5611 46.3331 20.7467 47.4441 24.3517C48.5551 27.9568 48.8158 31.6412 48.2263 35.405C48.181 35.5864 48.0789 35.7451 47.9202 35.8812C47.7615 36.0172 47.5915 36.0852 47.4101 36.0852ZM16.733 54.5867C16.6423 54.5867 16.5516 54.564 16.4609 54.5187C13.7401 53.6118 11.246 52.2514 8.97866 50.4375C8.75193 50.2107 8.66124 49.9387 8.70658 49.6212C8.75193 49.3038 8.93332 49.0884 9.25074 48.975C9.56817 48.8617 9.84025 48.9184 10.067 49.1451C12.1529 50.8229 14.4656 52.0926 17.005 52.9542C17.2318 52.9996 17.4132 53.1129 17.5492 53.2943C17.6852 53.4757 17.7306 53.6798 17.6852 53.9065C17.6399 54.1332 17.5265 54.3146 17.3451 54.4507C17.1638 54.5867 16.9597 54.6321 16.733 54.5867ZM1.08832 36.0852C0.861589 36.0852 0.668865 36.0172 0.510151 35.8812C0.351438 35.7451 0.272081 35.5637 0.272081 35.337C0.0906936 34.0673 0 32.7976 0 31.5279C0 28.9884 0.374111 26.5171 1.12233 24.1137C1.87055 21.7103 2.95888 19.4996 4.3873 17.4817C5.81573 15.4638 7.49356 13.6952 9.42079 12.1761C11.348 10.657 13.468 9.46666 15.7807 8.60507C16.0074 8.51438 16.2228 8.51438 16.4269 8.60507C16.6309 8.69576 16.7783 8.85448 16.869 9.08121C16.9597 9.30795 16.9597 9.52334 16.869 9.7274C16.7783 9.93147 16.6196 10.0788 16.3929 10.1695C13.0825 11.4392 10.237 13.3665 7.85633 15.9512C5.47562 18.536 3.76378 21.4949 2.72081 24.8279C1.67783 28.1609 1.42842 31.5959 1.97259 35.1329C2.01793 35.405 1.94991 35.6431 1.76852 35.8472C1.58714 36.0512 1.3604 36.1306 1.08832 36.0852ZM31.8334 54.5867C31.6067 54.6321 31.4026 54.5867 31.2213 54.4507C31.0399 54.3146 30.9265 54.1332 30.8812 53.9065C30.8358 53.6798 30.8812 53.4757 31.0172 53.2943C31.1532 53.1129 31.3346 52.9996 31.5614 52.9542C34.1008 52.0926 36.4361 50.8229 38.5674 49.1451C38.7488 49.0091 38.9529 48.9524 39.1796 48.975C39.4064 48.9977 39.5877 49.0998 39.7238 49.2811C39.8598 49.4625 39.9165 49.6666 39.8938 49.8933C39.8712 50.1201 39.7691 50.3014 39.5877 50.4375C37.3204 52.2514 34.8263 53.6118 32.1055 54.5187C32.0148 54.564 31.9241 54.5867 31.8334 54.5867ZM7.34618 31.5279C7.11945 31.5279 6.92672 31.4372 6.76801 31.2558C6.60929 31.0744 6.52994 30.8703 6.52994 30.6436C6.66598 27.6961 7.47088 24.9526 8.94465 22.4132C10.4184 19.8737 12.3797 17.8105 14.8284 16.2233C15.0098 16.0873 15.2138 16.0533 15.4406 16.1213C15.6673 16.1893 15.8487 16.314 15.9847 16.4954C16.1208 16.6768 16.1548 16.8809 16.0868 17.1076C16.0188 17.3343 15.894 17.5157 15.7127 17.6518C13.4907 19.1029 11.7108 20.9734 10.3731 23.2634C9.03535 25.5534 8.29846 28.0362 8.16242 30.7116C8.16242 30.9384 8.08307 31.1311 7.92435 31.2898C7.76564 31.4485 7.57291 31.5279 7.34618 31.5279ZM41.3563 31.5279C41.1295 31.5279 40.9255 31.4485 40.7441 31.2898C40.5627 31.1311 40.472 30.9384 40.472 30.7116C40.336 28.0362 39.5991 25.5534 38.2614 23.2634C36.9236 20.9734 35.1438 19.1029 32.9218 17.6518C32.7404 17.5157 32.6157 17.3343 32.5477 17.1076C32.4796 16.8809 32.5136 16.6768 32.6497 16.4954C32.7857 16.314 32.9671 16.1893 33.1938 16.1213C33.4206 16.0533 33.6246 16.0873 33.806 16.2233C36.2548 17.8105 38.2273 19.8737 39.7238 22.4132C41.2202 24.9526 42.0365 27.6961 42.1725 30.6436C42.1725 30.8703 42.0932 31.0744 41.9344 31.2558C41.7757 31.4372 41.583 31.5279 41.3563 31.5279ZM27.2761 53.3623C27.0494 53.3623 26.8566 53.2943 26.6979 53.1583C26.5392 53.0222 26.4599 52.8409 26.4599 52.6141L25.5076 37.9898C25.5076 37.7631 25.5756 37.559 25.7116 37.3776C25.8477 37.1962 26.0291 37.1055 26.2558 37.1055C26.4825 37.1055 26.6866 37.1735 26.868 37.3096C27.0494 37.4456 27.1401 37.627 27.1401 37.8537L28.1604 52.4781C28.1604 52.7048 28.081 52.9089 27.9223 53.0903C27.7636 53.2717 27.5708 53.3623 27.3441 53.3623H27.2761ZM28.2964 67.8506H20.27C20.0433 67.8506 19.8506 67.76 19.6918 67.5786C19.5331 67.3972 19.4538 67.1931 19.4538 66.9664L21.3583 37.7177C21.3583 37.491 21.449 37.2982 21.6304 37.1395C21.8118 36.9808 22.0272 36.9128 22.2766 36.9355C22.526 36.9581 22.7187 37.0602 22.8548 37.2416C22.9908 37.423 23.0588 37.627 23.0588 37.8537L21.1543 66.1501H27.4121L26.8 56.8314C26.8 56.514 26.936 56.2645 27.2081 56.0832C27.4802 55.9018 27.7636 55.8904 28.0583 56.0491C28.3531 56.2079 28.5005 56.4459 28.5005 56.7634L29.1807 66.9664C29.1807 67.2385 29.1013 67.4539 28.9426 67.6126C28.7839 67.7713 28.5685 67.8506 28.2964 67.8506ZM13.468 66.1501H34.7583C34.985 66.1501 35.1778 66.2295 35.3365 66.3882C35.4952 66.5469 35.5746 66.7397 35.5746 66.9664V71.1836C35.5746 71.4104 35.4952 71.6031 35.3365 71.7618C35.1778 71.9205 34.985 71.9999 34.7583 71.9999H13.468C13.2413 71.9999 13.0485 71.9205 12.8898 71.7618C12.7311 71.6031 12.6518 71.4104 12.6518 71.1836V66.9664C12.6518 66.7397 12.7311 66.5469 12.8898 66.3882C13.0485 66.2295 13.2413 66.1501 13.468 66.1501ZM33.9421 67.8506H14.2842V70.3674H33.9421V67.8506ZM24.2832 28.8751C25.0994 28.8751 25.791 29.1585 26.3578 29.7253C26.9247 30.2922 27.2081 30.9837 27.2081 31.8C27.2081 32.6162 26.9247 33.3077 26.3578 33.8746C25.791 34.4414 25.0994 34.7248 24.2832 34.7248C23.467 34.7248 22.7754 34.4414 22.2086 33.8746C21.6418 33.3077 21.3583 32.6162 21.3583 31.8C21.3583 30.9837 21.6418 30.2922 22.2086 29.7253C22.7754 29.1585 23.467 28.8751 24.2832 28.8751ZM24.2832 33.0243C24.5553 33.0243 24.8047 32.9563 25.0314 32.8203C25.2582 32.6842 25.4282 32.4915 25.5416 32.2421C25.6549 31.9927 25.689 31.7433 25.6436 31.4939C25.5983 31.2445 25.4736 31.0177 25.2695 30.8137C25.0654 30.6096 24.8387 30.4849 24.5893 30.4395C24.3399 30.3942 24.0905 30.4282 23.8411 30.5416C23.5917 30.6549 23.3989 30.825 23.2629 31.0517C23.1269 31.2785 23.0588 31.5392 23.0588 31.834C23.0588 32.1287 23.1835 32.4008 23.433 32.6502C23.6824 32.8996 23.9658 33.0243 24.2832 33.0243ZM53.1238 71.9999H40.608C40.3813 71.9999 40.1773 71.9205 39.9959 71.7618C39.8145 71.6031 39.7238 71.4104 39.7238 71.1836V58.6679C39.7238 58.3505 39.8598 58.1238 40.1319 57.9877L46.3898 53.7705C46.7072 53.5891 47.0019 53.5891 47.274 53.7705L53.5319 57.9877C53.804 58.1238 53.94 58.3505 53.94 58.6679V71.1836C53.94 71.4104 53.8606 71.6031 53.7019 71.7618C53.5432 71.9205 53.3505 71.9999 53.1238 71.9999ZM41.4243 70.3674H52.2395V59.076L46.8659 55.471L41.4243 59.076V70.3674ZM46.8659 68.5308C46.5485 68.5308 46.2991 68.3948 46.1177 68.1227C45.9363 67.8506 45.9363 67.5786 46.1177 67.3065L47.6141 64.3136H44.7573C44.4398 64.3136 44.2018 64.1889 44.0431 63.9395C43.8844 63.6901 43.873 63.4293 44.0091 63.1573L46.1177 58.94C46.2537 58.7586 46.4124 58.6452 46.5938 58.5999C46.7752 58.5546 46.9566 58.5886 47.138 58.7019C47.3194 58.8153 47.4441 58.9627 47.5121 59.1441C47.5801 59.3255 47.5915 59.5068 47.5461 59.6882L46.1177 62.6811H48.9065C49.2239 62.6811 49.462 62.8058 49.6207 63.0552C49.7794 63.3046 49.7908 63.5654 49.6547 63.8375L47.5461 68.0547C47.4101 68.3268 47.1833 68.4855 46.8659 68.5308Z" fill="#3763EB"/>
</g>
<defs>
<clipPath id="clip0_2001_194">
<rect width="53.94" height="74.8" fill="white" transform="matrix(1 0 0 -1 0 75.3898)"/>
</clipPath>
</defs>
</svg>
