<svg width="60" height="84" viewBox="0 0 60 84" fill="none" xmlns="http://www.w3.org/2000/svg">
<g clip-path="url(#clip0_2001_482)">
<path d="M24.1659 29.8546C23.9165 29.8546 23.6921 29.7673 23.4926 29.5927C23.2931 29.4182 23.1933 29.2062 23.1933 28.9568L22.7444 20.1284L23.343 9.8036C23.3928 8.55664 23.6921 7.38451 24.2408 6.28719C24.4403 5.78841 24.752 5.38938 25.176 5.09011C25.5999 4.79085 26.0862 4.62874 26.6349 4.60381C27.1836 4.57887 27.6823 4.71603 28.1312 5.0153C28.5802 5.31457 28.9044 5.71359 29.1039 6.21237C29.7523 7.30969 30.1014 8.50677 30.1513 9.8036L30.675 20.2032L30.2261 28.9568C30.2261 29.3059 30.064 29.5678 29.7398 29.7424C29.4156 29.9169 29.1039 29.9045 28.8046 29.705C28.5053 29.5054 28.3557 29.2311 28.3557 28.882L28.8046 20.2032L28.2809 9.95323C28.231 8.85591 28.0315 7.95811 27.6823 7.25981C27.3332 6.66128 26.9965 6.36201 26.6723 6.36201C26.3481 6.36201 26.0239 6.69868 25.6997 7.37204C25.3755 8.04539 25.1884 8.90579 25.1386 9.95323L24.6148 20.2032L25.0637 28.882C25.0637 29.1314 24.9765 29.3558 24.8019 29.5553C24.6273 29.7548 24.4153 29.8546 24.1659 29.8546ZM16.5346 45.3417C16.1854 45.3417 15.9361 45.217 15.7864 44.9677C15.6368 44.7183 15.5994 44.4689 15.6742 44.2195C15.749 43.9701 15.8862 43.7706 16.0857 43.6209L22.0711 39.7305C22.2706 39.5808 22.495 39.5434 22.7444 39.6182C22.9938 39.693 23.1933 39.8302 23.343 40.0297C23.4926 40.2292 23.5425 40.4537 23.4926 40.7031C23.4427 40.9525 23.318 41.152 23.1185 41.3016L17.0583 45.1921C16.9087 45.2919 16.7341 45.3417 16.5346 45.3417ZM3.14232 51.7012H3.0675C2.56872 51.7511 2.08241 51.6638 1.60857 51.4393C1.13473 51.2149 0.760641 50.8657 0.486311 50.3919C0.211982 49.9181 0.0997562 49.4193 0.149634 48.8956C0.199512 48.3718 0.374086 47.8855 0.673354 47.4366C1.32177 46.3393 2.19464 45.4664 3.29195 44.818L11.9707 39.2067H12.0456L19.8265 35.2414C20.0261 35.1915 20.2256 35.204 20.4251 35.2788C20.6246 35.3537 20.7867 35.4908 20.9114 35.6903C21.0361 35.8898 21.0735 36.0894 21.0236 36.2889C20.9737 36.4884 20.849 36.663 20.6495 36.8126L12.9434 40.7779L4.26458 46.3892C3.41665 46.9378 2.79317 47.5239 2.39415 48.1474C1.99512 48.7709 1.87043 49.2198 2.02006 49.4941C2.1697 49.7684 2.59366 49.9056 3.29195 49.9056C4.09 49.9056 4.96287 49.6562 5.91055 49.1574L12.1952 45.9403C12.4945 45.7906 12.7937 45.8156 13.093 46.0151C13.3923 46.2146 13.5294 46.4889 13.5045 46.8381C13.4796 47.1872 13.3175 47.4366 13.0182 47.5863L6.73354 50.7286C5.63623 51.3271 4.43915 51.6513 3.14232 51.7012ZM50.2023 51.7012C48.9055 51.6513 47.7084 51.3271 46.6111 50.7286L37.4086 46.0151H37.3338L30.0017 41.2268C29.8022 41.0772 29.6775 40.8777 29.6276 40.6283C29.5777 40.3789 29.6276 40.1544 29.7772 39.9549C29.9269 39.7554 30.1264 39.6307 30.3758 39.5808C30.6252 39.5309 30.8496 39.5808 31.0491 39.7305L38.3064 44.4439L47.4341 49.0826C48.3319 49.5814 49.1673 49.8557 49.9404 49.9056C50.7136 49.9555 51.1749 49.8308 51.3246 49.5315C51.4742 49.2322 51.3744 48.8083 51.0253 48.2596C50.5764 47.5613 49.903 46.9378 49.0052 46.3892L42.945 42.4239C42.7455 42.2742 42.6208 42.0747 42.571 41.8253C42.5211 41.5759 42.571 41.3515 42.7206 41.152C42.8702 40.9525 43.0697 40.8278 43.3191 40.7779C43.5685 40.728 43.793 40.7779 43.9925 40.9275L50.0527 44.818C51.15 45.5163 52.0229 46.4141 52.6713 47.5114C53.0204 47.9105 53.2075 48.3843 53.2324 48.933C53.2573 49.4816 53.1326 49.9804 52.8583 50.4293C52.584 50.8782 52.2099 51.2274 51.7361 51.4767C51.2622 51.7261 50.751 51.801 50.2023 51.7012ZM39.6531 40.1794C39.5035 40.1794 39.3538 40.1295 39.2042 40.0297L32.9944 36.8874C32.745 36.7876 32.5829 36.6255 32.5081 36.4011C32.4332 36.1766 32.4457 35.9397 32.5455 35.6903C32.6452 35.4409 32.8198 35.2664 33.0692 35.1666C33.3186 35.0669 33.568 35.0918 33.8174 35.2414L40.0272 38.4586C40.2267 38.5583 40.3763 38.708 40.4761 38.9075C40.5758 39.107 40.6008 39.3065 40.5509 39.506C40.501 39.7055 40.3763 39.8801 40.1768 40.0297C39.9773 40.1794 39.7778 40.2292 39.5783 40.1794H39.6531ZM26.7097 27.3108C28.1063 27.3108 29.4031 27.66 30.6002 28.3582C31.7973 29.0565 32.745 29.9918 33.4433 31.1639C34.1416 32.336 34.4907 33.6329 34.4907 35.0544C34.4907 36.4759 34.1416 37.7852 33.4433 38.9823C32.745 40.1794 31.8098 41.127 30.6376 41.8253C29.4655 42.5236 28.1687 42.8728 26.7471 42.8728C25.3256 42.8728 24.0288 42.5361 22.8566 41.8627C21.6845 41.1894 20.7368 40.2542 20.0136 39.0571C19.2904 37.86 18.9287 36.5632 18.9287 35.1666C18.9287 34.1192 19.1158 33.1216 19.4899 32.1739C19.864 31.2262 20.4251 30.3783 21.1733 29.6301C21.9214 28.882 22.7694 28.3084 23.717 27.9093C24.6647 27.5103 25.6623 27.3108 26.7097 27.3108ZM26.7097 41.0772C27.9068 41.0772 29.0166 40.7405 30.0391 40.0671C31.0616 39.3938 31.7973 38.496 32.2462 37.3737C32.6951 36.2515 32.8073 35.0918 32.5829 33.8947C32.3584 32.6976 31.8098 31.6751 30.9369 30.8272C30.064 29.9793 29.0291 29.4431 27.832 29.2186C26.6349 28.9942 25.4752 29.1189 24.353 29.5927C23.2307 30.0666 22.3454 30.8147 21.697 31.8372C21.0486 32.8597 20.7243 33.9695 20.7243 35.1666C20.7243 36.8126 21.3104 38.2092 22.4826 39.3564C23.6547 40.5036 25.0637 41.0772 26.7097 41.0772ZM52.1476 39.8801C51.8982 39.8801 51.6737 39.7928 51.4742 39.6182C51.2747 39.4437 51.1749 39.2317 51.1749 38.9823V38.8326C51.7735 34.9422 51.4991 31.1639 50.3519 27.4979C49.2047 23.8318 47.3218 20.5773 44.7032 17.7342C42.0846 14.8912 38.9548 12.7713 35.3137 11.3748C35.0643 11.275 34.8897 11.1129 34.79 10.8884C34.6902 10.664 34.6902 10.4271 34.79 10.1777C34.8897 9.92829 35.0518 9.75372 35.2763 9.65396C35.5007 9.55421 35.7377 9.55421 35.987 9.65396C39.9274 11.1503 43.3067 13.4198 46.1248 16.4623C48.9429 19.5049 50.9629 23.0088 52.185 26.9741C53.407 30.9394 53.6938 34.992 53.0454 39.1319C52.9955 39.3314 52.8833 39.506 52.7087 39.6556C52.5341 39.8053 52.3471 39.8801 52.1476 39.8801ZM18.405 60.2304C18.3053 60.2304 18.2055 60.2054 18.1058 60.1555C15.1131 59.158 12.3698 57.6616 9.87586 55.6665C9.62647 55.4171 9.52672 55.1178 9.5766 54.7687C9.62647 54.4196 9.82599 54.1826 10.1751 54.0579C10.5243 53.9332 10.8235 53.9956 11.0729 54.245C13.3673 56.0905 15.9111 57.4871 18.7043 58.4347C18.9537 58.4846 19.1532 58.6093 19.3028 58.8088C19.4525 59.0083 19.5023 59.2328 19.4525 59.4822C19.4026 59.7316 19.2779 59.9311 19.0784 60.0807C18.8789 60.2304 18.6544 60.2802 18.405 60.2304ZM1.19707 39.8801C0.947684 39.8801 0.735702 39.8053 0.561129 39.6556C0.386555 39.506 0.299269 39.3065 0.299269 39.0571C0.0997562 37.6605 0 36.2639 0 34.8673C0 32.0742 0.411494 29.3558 1.23448 26.7123C2.05747 24.0687 3.25455 21.6372 4.82571 19.4176C6.39687 17.198 8.24236 15.2528 10.3622 13.5819C12.482 11.9109 14.8138 10.6016 17.3576 9.65396C17.607 9.55421 17.8439 9.55421 18.0683 9.65396C18.2928 9.75372 18.4549 9.92829 18.5547 10.1777C18.6544 10.4271 18.6544 10.664 18.5547 10.8884C18.4549 11.1129 18.2803 11.275 18.0309 11.3748C14.3898 12.7713 11.26 14.8912 8.64138 17.7342C6.02278 20.5773 4.13988 23.8318 2.99269 27.4979C1.84549 31.1639 1.57116 34.9422 2.1697 38.8326C2.21958 39.1319 2.14476 39.3938 1.94525 39.6182C1.74573 39.8427 1.49634 39.93 1.19707 39.8801ZM35.0144 60.2304C34.765 60.2802 34.5406 60.2304 34.3411 60.0807C34.1416 59.9311 34.0169 59.7316 33.967 59.4822C33.9171 59.2328 33.967 59.0083 34.1166 58.8088C34.2663 58.6093 34.4658 58.4846 34.7152 58.4347C37.5083 57.4871 40.0771 56.0905 42.4213 54.245C42.6208 54.0953 42.8453 54.033 43.0947 54.0579C43.3441 54.0829 43.5436 54.1951 43.6932 54.3946C43.8428 54.5941 43.9052 54.8186 43.8803 55.068C43.8553 55.3174 43.7431 55.5169 43.5436 55.6665C41.0497 57.6616 38.3064 59.158 35.3137 60.1555C35.2139 60.2054 35.1142 60.2304 35.0144 60.2304ZM8.08025 34.8673C7.83086 34.8673 7.61888 34.7676 7.44431 34.5681C7.26973 34.3686 7.18245 34.1441 7.18245 33.8947C7.33208 30.6526 8.21742 27.635 9.83846 24.8418C11.4595 22.0487 13.6167 19.7792 16.3101 18.0335C16.5097 17.8838 16.7341 17.8464 16.9835 17.9213C17.2329 17.9961 17.4324 18.1332 17.582 18.3327C17.7317 18.5323 17.7691 18.7567 17.6943 19.0061C17.6194 19.2555 17.4823 19.455 17.2828 19.6046C14.8387 21.2007 12.881 23.2582 11.4096 25.7771C9.93821 28.2959 9.12769 31.0267 8.97806 33.9695C8.97806 34.2189 8.89077 34.4309 8.7162 34.6055C8.54163 34.7801 8.32964 34.8673 8.08025 34.8673ZM45.4888 34.8673C45.2394 34.8673 45.015 34.7801 44.8155 34.6055C44.616 34.4309 44.5162 34.2189 44.5162 33.9695C44.3666 31.0267 43.5561 28.2959 42.0846 25.7771C40.6132 23.2582 38.6555 21.2007 36.2115 19.6046C36.012 19.455 35.8748 19.2555 35.8 19.0061C35.7252 18.7567 35.7626 18.5323 35.9122 18.3327C36.0619 18.1332 36.2614 17.9961 36.5108 17.9213C36.7602 17.8464 36.9846 17.8838 37.1841 18.0335C39.8775 19.7792 42.0472 22.0487 43.6932 24.8418C45.3392 27.635 46.237 30.6526 46.3866 33.8947C46.3866 34.1441 46.2993 34.3686 46.1248 34.5681C45.9502 34.7676 45.7382 34.8673 45.4888 34.8673ZM30.0017 58.8836C29.7523 58.8836 29.5403 58.8088 29.3657 58.6592C29.1912 58.5096 29.1039 58.31 29.1039 58.0607L28.0564 41.975C28.0564 41.7256 28.1312 41.5011 28.2809 41.3016C28.4305 41.1021 28.63 41.0023 28.8794 41.0023C29.1288 41.0023 29.3533 41.0772 29.5528 41.2268C29.7523 41.3764 29.852 41.5759 29.852 41.8253L30.9743 57.911C30.9743 58.1604 30.887 58.3849 30.7124 58.5844C30.5379 58.7839 30.3259 58.8836 30.0765 58.8836H30.0017ZM31.1239 74.8197H22.2955C22.0461 74.8197 21.8341 74.7199 21.6596 74.5204C21.485 74.3209 21.3977 74.0965 21.3977 73.8471L23.4926 41.6757C23.4926 41.4263 23.5923 41.2143 23.7919 41.0398C23.9914 40.8652 24.2283 40.7904 24.5026 40.8153C24.7769 40.8402 24.9889 40.9525 25.1386 41.152C25.2882 41.3515 25.363 41.5759 25.363 41.8253L23.2681 72.9493H30.1513L29.478 62.6993C29.478 62.3502 29.6276 62.0758 29.9269 61.8763C30.2261 61.6768 30.5379 61.6644 30.8621 61.8389C31.1863 62.0135 31.3484 62.2754 31.3484 62.6245L32.0966 73.8471C32.0966 74.1463 32.0093 74.3833 31.8347 74.5578C31.6601 74.7324 31.4232 74.8197 31.1239 74.8197ZM14.8138 72.9493H38.2316C38.481 72.9493 38.6929 73.0366 38.8675 73.2111C39.0421 73.3857 39.1294 73.5977 39.1294 73.8471V78.4857C39.1294 78.7351 39.0421 78.9471 38.8675 79.1217C38.6929 79.2963 38.481 79.3835 38.2316 79.3835H14.8138C14.5644 79.3835 14.3524 79.2963 14.1778 79.1217C14.0033 78.9471 13.916 78.7351 13.916 78.4857V73.8471C13.916 73.5977 14.0033 73.3857 14.1778 73.2111C14.3524 73.0366 14.5644 72.9493 14.8138 72.9493ZM37.3338 74.8197H15.7116V77.5879H37.3338V74.8197ZM26.7097 31.9495C27.6075 31.9495 28.3682 32.2612 28.9916 32.8847C29.6151 33.5082 29.9269 34.2688 29.9269 35.1666C29.9269 36.0644 29.6151 36.8251 28.9916 37.4485C28.3682 38.072 27.6075 38.3837 26.7097 38.3837C25.8119 38.3837 25.0513 38.072 24.4278 37.4485C23.8043 36.8251 23.4926 36.0644 23.4926 35.1666C23.4926 34.2688 23.8043 33.5082 24.4278 32.8847C25.0513 32.2612 25.8119 31.9495 26.7097 31.9495ZM26.7097 36.5133C27.009 36.5133 27.2833 36.4385 27.5327 36.2889C27.7821 36.1392 27.9691 35.9272 28.0938 35.6529C28.2185 35.3786 28.2559 35.1043 28.2061 34.8299C28.1562 34.5556 28.019 34.3062 27.7946 34.0818C27.5701 33.8573 27.3207 33.7201 27.0464 33.6703C26.7721 33.6204 26.4977 33.6578 26.2234 33.7825C25.9491 33.9072 25.7371 34.0942 25.5875 34.3436C25.4378 34.593 25.363 34.8798 25.363 35.204C25.363 35.5282 25.5002 35.8275 25.7745 36.1018C26.0488 36.3762 26.3606 36.5133 26.7097 36.5133ZM58.4322 79.3835H44.6658C44.4164 79.3835 44.192 79.2963 43.9925 79.1217C43.793 78.9471 43.6932 78.7351 43.6932 78.4857V64.7194C43.6932 64.3702 43.8428 64.1208 44.1421 63.9712L51.0253 59.3325C51.3744 59.133 51.6987 59.133 51.9979 59.3325L58.8811 63.9712C59.1804 64.1208 59.33 64.3702 59.33 64.7194V78.4857C59.33 78.7351 59.2427 78.9471 59.0681 79.1217C58.8936 79.2963 58.6816 79.3835 58.4322 79.3835ZM45.5636 77.5879H57.4596V65.1683L51.549 61.203L45.5636 65.1683V77.5879ZM51.549 75.5679C51.1999 75.5679 50.9255 75.4182 50.726 75.119C50.5265 74.8197 50.5265 74.5204 50.726 74.2212L52.372 70.9292H49.2297C48.8805 70.9292 48.6187 70.792 48.4441 70.5177C48.2695 70.2434 48.2571 69.9566 48.4067 69.6573L50.726 65.0187C50.8757 64.8191 51.0502 64.6944 51.2497 64.6446C51.4493 64.5947 51.6488 64.6321 51.8483 64.7568C52.0478 64.8815 52.185 65.0436 52.2598 65.2431C52.3346 65.4426 52.3471 65.6421 52.2972 65.8416L50.726 69.1336H53.7935C54.1427 69.1336 54.4045 69.2708 54.5791 69.5451C54.7537 69.8194 54.7662 70.1062 54.6165 70.4055L52.2972 75.0442C52.1476 75.3434 51.8982 75.518 51.549 75.5679Z" fill="white"/>
</g>
<defs>
<clipPath id="clip0_2001_482">
<rect width="59.33" height="82.27" fill="white" transform="matrix(1 0 0 -1 0 83.1099)"/>
</clipPath>
</defs>
</svg>
